<svg xmlns="http://www.w3.org/2000/svg" xmlns:xlink="http://www.w3.org/1999/xlink" viewBox="0,0,256,256" width="512px" height="512px"><g fill="none" fill-rule="nonzero" stroke="none" stroke-width="1" stroke-linecap="butt" stroke-linejoin="miter" stroke-miterlimit="10" stroke-dasharray="" stroke-dashoffset="0" font-family="none" font-weight="none" font-size="none" text-anchor="none" style="mix-blend-mode: normal"><g transform="scale(3.87879,3.87879)"><rect x="15.02" y="47.61" width="5.81" height="9.76" fill="#ec8152"></rect><rect x="25.96" y="38.74" width="5.81" height="18.63" fill="#e9f931"></rect><rect x="36.9" y="29.88" width="5.81" height="27.49" fill="#ec8152"></rect><rect x="47.84" y="21.02" width="5.82" height="36.35" fill="#e9f931"></rect><path d="M44.51,21.33v-6.92h-6.92z" fill="#e9f931"></path><g fill="#505050"><path d="M6.16,50.23c-1.79,0 -3.25,-1.46 -3.25,-3.25c0,-1.79 1.46,-3.25 3.25,-3.25c1.79,0 3.25,1.46 3.25,3.25c0,1.79 -1.46,3.25 -3.25,3.25zM6.16,45.23c-0.96,0 -1.75,0.79 -1.75,1.75c0,0.96 0.79,1.75 1.75,1.75c0.96,0 1.75,-0.79 1.75,-1.75c0,-0.96 -0.78,-1.75 -1.75,-1.75z"></path><circle cx="2.16" cy="51.48" r="1"></circle></g><g fill="#505050"><path d="M60.09,17.47v0c-0.32,0 -0.6,-0.2 -0.71,-0.51c-0.57,-1.67 -1.86,-2.96 -3.53,-3.54c-0.3,-0.1 -0.51,-0.39 -0.51,-0.71c0,-0.32 0.2,-0.6 0.51,-0.71c1.67,-0.58 2.96,-1.86 3.53,-3.54c0.1,-0.3 0.39,-0.51 0.71,-0.51c0.32,0 0.6,0.2 0.71,0.51c0.58,1.67 1.86,2.96 3.53,3.54c0.3,0.1 0.51,0.39 0.51,0.71c0,0.32 -0.2,0.6 -0.51,0.71c-1.67,0.58 -2.96,1.86 -3.53,3.54c-0.11,0.31 -0.39,0.51 -0.71,0.51zM57.82,12.72c0.92,0.57 1.69,1.35 2.27,2.27c0.57,-0.92 1.35,-1.69 2.27,-2.27c-0.92,-0.57 -1.69,-1.35 -2.27,-2.27c-0.58,0.92 -1.35,1.69 -2.27,2.27z"></path></g><g fill="#505050"><path d="M9.37,12.72h-2.96c-0.41,0 -0.75,-0.34 -0.75,-0.75c0,-0.41 0.34,-0.75 0.75,-0.75h2.96c0.41,0 0.75,0.34 0.75,0.75c0,0.41 -0.33,0.75 -0.75,0.75z"></path><path d="M16.41,12.72h-2.96c-0.41,0 -0.75,-0.34 -0.75,-0.75c0,-0.41 0.34,-0.75 0.75,-0.75h2.96c0.41,0 0.75,0.34 0.75,0.75c0,0.41 -0.33,0.75 -0.75,0.75z"></path><g><path d="M11.41,10.68c-0.41,0 -0.75,-0.34 -0.75,-0.75v-2.96c0,-0.41 0.34,-0.75 0.75,-0.75c0.41,0 0.75,0.34 0.75,0.75v2.96c0,0.41 -0.33,0.75 -0.75,0.75z"></path><path d="M11.41,17.72c-0.41,0 -0.75,-0.34 -0.75,-0.75v-2.96c0,-0.41 0.34,-0.75 0.75,-0.75c0.41,0 0.75,0.34 0.75,0.75v2.96c0,0.41 -0.33,0.75 -0.75,0.75z"></path></g></g><g fill="#505050"><path d="M13.52,45.36c-0.41,0 -0.75,0.34 -0.75,0.75v9.76c0,0.41 0.34,0.75 0.75,0.75h5.81c0.41,0 0.75,-0.34 0.75,-0.75v-9.76c0,-0.41 -0.34,-0.75 -0.75,-0.75zM18.59,55.12h-4.31v-8.26h4.31z"></path><path d="M24.46,36.49c-0.41,0 -0.75,0.34 -0.75,0.75v18.63c0,0.41 0.34,0.75 0.75,0.75h5.82c0.41,0 0.75,-0.34 0.75,-0.75v-18.63c0,-0.41 -0.34,-0.75 -0.75,-0.75zM29.53,55.12h-4.32v-17.13h4.32z"></path><path d="M35.4,27.63c-0.41,0 -0.75,0.34 -0.75,0.75v27.49c0,0.41 0.34,0.75 0.75,0.75h5.81c0.41,0 0.75,-0.34 0.75,-0.75v-27.49c0,-0.41 -0.34,-0.75 -0.75,-0.75zM40.47,55.12h-4.31v-25.99h4.31z"></path><path d="M46.34,56.62h5.81c0.41,0 0.75,-0.34 0.75,-0.75v-36.35c0,-0.41 -0.34,-0.75 -0.75,-0.75h-5.81c-0.41,0 -0.75,0.34 -0.75,0.75v36.35c0,0.41 0.33,0.75 0.75,0.75zM47.09,20.27h4.31v34.85h-4.31z"></path><path d="M56.84,58.28h-48c-0.41,0 -0.75,0.34 -0.75,0.75c0,0.41 0.34,0.75 0.75,0.75h48c0.41,0 0.75,-0.34 0.75,-0.75c0,-0.41 -0.34,-0.75 -0.75,-0.75z"></path><path d="M10.63,32.68c0.19,0 0.38,-0.07 0.53,-0.22l8.45,-8.45l6.15,6.15c0.14,0.14 0.33,0.22 0.53,0.22c0.2,0 0.39,-0.08 0.53,-0.22l12.72,-12.72l2.93,2.93c0.14,0.14 0.34,0.22 0.53,0.22c0.1,0 0.19,-0.02 0.29,-0.06c0.28,-0.12 0.46,-0.39 0.46,-0.69v-6.92c0,-0.41 -0.34,-0.75 -0.75,-0.75h-6.92c-0.3,0 -0.58,0.18 -0.69,0.46c-0.12,0.28 -0.05,0.6 0.16,0.82l2.93,2.93l-12.19,12.18l-6.15,-6.15c-0.28,-0.28 -0.78,-0.28 -1.06,0l-8.98,8.99c-0.29,0.29 -0.29,0.77 0,1.06c0.15,0.14 0.34,0.22 0.53,0.22zM42.26,13.66v4.36l-4.36,-4.36z"></path></g></g></g></svg>