<svg xmlns="http://www.w3.org/2000/svg" viewBox="0 0 2800 2800" width="2800" height="2800"><g transform="translate(400.0 325.0) rotate(0.0 524.0 1109.0) scale(0.9989143478604838 0.9985301168478322)"><svg width="1049.139" height="2221.265" viewBox="0 0 1049.139 2221.265"><circle cx="507.605" cy="2013.765" fill="#fff4e2" r="200"/><path d="M309.778 2043.278c-7.628-85.445 97.543-148.539 182.037-128.761 42.769 10.011 82.952 46.586 82.952 92.952 0 37.092-30.069 67.161-67.161 67.161-26.395 0-56.419-25.84-53.729-53.729-48.002 62.5 17.961 133.985 87.163 136.762 106.41 4.27 182.58-88.857 159.878-195.259l.009-.035c-22.686-85.549-100.634-148.603-193.321-148.603-110.457 0-200 89.543-200 200 0 10.028.747 19.881 2.172 29.513z" fill="#F7CEC6"/><path d="M507.605 2221.265c-114.416 0-207.5-93.084-207.5-207.5s93.084-207.5 207.5-207.5 207.5 93.084 207.5 207.5-93.084 207.5-207.5 207.5zm0-400c-106.145 0-192.5 86.355-192.5 192.5s86.355 192.5 192.5 192.5 192.5-86.355 192.5-192.5-86.355-192.5-192.5-192.5z" fill="#430c61"/><path d="M1041.462 545.785C1048.925 255.837 819.303 10.072 529.271 7.52 241.54 4.989 7.5 237.471 7.5 524.616v.433c.062 26.29 21.507 47.532 47.796 47.601 32.548.086 76.081.035 108.18-.027 23.245-.045 43.029-16.784 47.054-39.678 18.715-106.442 111.597-187.33 223.386-187.405 136.046-.091 239.168 121.049 225.699 256.426-11.298 113.561-88.519 191.761-201.288 333.333-201.012 252.353-91.865 545.383-50.298 635.347 7.813 16.909 24.798 27.664 43.424 27.664h91.435c25.856 0 47.051-20.475 47.879-46.318 2.658-82.979 20.216-260.194 116.383-387.509 116.066-153.658 325.75-286.188 334.309-618.699z" fill="#fff4e2"/><path d="M210.53 532.958c-4.023 22.887-23.803 39.622-47.041 39.666-32.101.062-75.64.113-108.192.027-26.29-.069-47.735-21.311-47.796-47.601v-.433c0-54.713 8.506-107.438 24.253-156.935 61.871-51.347 178.852-85.837 302.013 1.184-63.709 31.439-110.544 91.881-123.236 164.093zm758.831 301.475c-96.763-1.235-404.039 47.931-591.342 238.935-33.51 85.081-40.873 169.842-35.458 245.653 56.113-100.354 245.962-297.536 533.769-347.541 33.793-40.866 66.089-85.584 93.031-137.047zm-352.613 528.831c12.82-50.551 31.767-103.396 59.686-152.086-84.367 35.494-225.47 121.964-294.446 294.774 9.402 26.923 18.761 48.93 26.044 64.695 7.813 16.909 24.798 27.664 43.424 27.664h34.471c21.745-144.222 112.926-221.946 130.821-235.047zM853.887 128.242c27.46 75.487 36.951 169.468-10.886 270.174-50.926 107.208-126.95 189.566-190.343 243.424-20.529 81.479-77.526 149.256-157.374 247.59 46.147-35.178 114.937-84.58 199.686-141.775 152.263-102.758 276.774-183.942 342.5-281.968-16.965-134.248-84.658-254.042-183.583-337.445zM521.433 363.386c39.875 17.098 73.636 45.514 97.941 80.967 70.219-186.003 18.407-336.834-54.011-435.238a513.811 513.811 0 0 0-36.094-1.595c-104.273-.917-201.49 29.038-283.077 81.267 97.816 25.44 223.669 97.298 275.241 274.598z" fill="#F7CEC6"/><path d="M542.891 1605.811h-91.436c-21.528 0-41.245-12.568-50.232-32.018-21.664-46.887-59.11-142.94-66.495-259.45-4.15-65.467 1.856-128.691 17.854-187.917 19.095-70.691 52.699-136.568 99.881-195.8 16.294-20.456 31.675-39.378 46.548-57.677 86.532-106.459 143.698-176.79 153.144-271.725 6.423-64.556-14.687-128.945-57.914-176.655-41.795-46.128-98.677-71.529-160.168-71.529h-.15c-106.719.072-197.563 76.283-216.005 181.215-4.663 26.526-27.547 45.816-54.413 45.868-31.24.06-75.373.114-108.227.027C24.869 580.07.072 555.36 0 525.067v-.451c0-71.227 14.025-140.297 41.689-205.292C68.408 256.55 106.632 200.26 155.3 152.018c48.655-48.229 105.26-85.945 168.242-112.102C388.797 12.817 458.012-.597 529.336.021c70.833.623 139.426 15.399 203.872 43.918 61.994 27.433 117.616 66.382 165.32 115.763 48.856 50.573 86.802 109.334 112.783 174.651 26.858 67.521 39.525 138.723 37.649 211.627-2.985 115.964-30.479 218.108-84.054 312.267-46.822 82.291-105.505 145.918-162.257 207.45-32.608 35.356-63.409 68.751-89.513 103.309-93.222 123.415-111.984 293.078-114.871 383.228-.963 30.043-25.286 53.578-55.375 53.578zM434.072 338.041c33.338 0 65.442 6.964 95.427 20.699 28.74 13.166 54.262 31.925 75.856 55.759 46.068 50.845 68.566 119.445 61.725 188.211-9.891 99.416-68.187 171.137-156.429 279.701-14.852 18.271-30.208 37.164-46.456 57.562-199.256 250.148-88.152 543.56-49.354 627.529 6.542 14.16 20.915 23.31 36.615 23.31h91.436c21.942 0 39.681-17.156 40.383-39.058 1.355-42.34 6.503-107.699 23.323-178.619 20.183-85.09 52-156.811 94.571-213.169 26.547-35.145 57.59-68.803 90.455-104.438 110.524-119.835 235.796-255.659 242.341-509.933l7.498.193-7.498-.193c3.624-140.767-48.307-274.112-146.225-375.47C792.269 71.298 664.938 16.214 529.203 15.02a508.383 508.383 0 0 0-4.62-.021c-135.313 0-262.542 52.335-358.722 147.672C68.577 259.104 15 387.645 15 524.616v.383c.053 22.096 18.138 40.093 40.316 40.151 32.823.086 76.936.033 108.158-.027 19.584-.037 36.267-14.111 39.669-33.465 9.421-53.6 37.591-102.616 79.321-138.019 42.22-35.817 96.004-55.563 151.447-55.6h.16z" fill="#430c61"/></svg></g><g transform="translate(1247.0 282.0) rotate(0.0 577.5 1130.5) scale(1.0010634674238348 1.0008893351058061)"><svg width="1153.773" height="2258.991" viewBox="0 0 1153.773 2258.991"><path d="M619.979 293.09c27.839-30.689 30.189-80.394-9.682-110.944-42.581-32.628-57.882-47.2-73.192-90.291-28.727-80.851-95.771-68.259-95.771-68.259C399.163-10.398 300.4 6.701 284.77 101.377c-7.303 44.237-11.927 108.994-52.272 160.312s19.032 93.864 19.032 93.864c-26.524 50.127 80.111 140.145 222.329 122.378 113.963-14.237 146.501-59.734 157.508-82.166 24.023-48.959 8.971-85.219-11.388-102.676z" fill="#430c61"/><path d="M437.289 487.719c-34.885 0-68.947-6.129-100.139-18.152-36.765-14.172-67.363-36.08-83.949-60.106-12.521-18.139-16.257-36.228-10.829-51.646-8.898-7.66-27.298-26.199-30.832-51.027-2.445-17.178 2.622-33.911 15.061-49.733 33.804-42.997 41.629-95.849 47.918-138.317.967-6.53 1.88-12.697 2.852-18.582 3.873-23.462 12.769-43.672 26.44-60.067 12.065-14.471 27.888-25.722 45.756-32.537 32.81-12.514 70.024-9.149 93.868 8.209 6.399-.638 20.841-1.125 37.438 4.55 20.133 6.884 47.457 24.448 63.299 69.034 14.72 41.429 29.328 55.157 70.687 86.849 19.488 14.932 30.873 34.825 32.925 57.528 1.871 20.707-4.483 41.757-17.557 58.788 20.011 21.143 31.387 58.641 7.873 106.561-22.536 45.929-79.009 75.773-163.312 86.304a302.916 302.916 0 0 1-37.499 2.345zM390.497 14.958c-11.73 0-23.943 2.168-35.586 6.609-19.675 7.504-53.988 28.01-62.742 81.032-.951 5.761-1.855 11.869-2.813 18.335-6.549 44.224-14.698 99.262-50.963 145.391-9.791 12.454-13.833 25.33-12.015 38.27 3.643 25.914 29.271 44.684 29.529 44.871 3.034 2.19 4 6.289 2.25 9.596-6.021 11.381-3.398 26.254 7.388 41.878 14.914 21.605 42.979 41.518 77 54.631 21.809 8.407 54.243 17.158 94.704 17.159 11.289 0 23.195-.68 35.679-2.24 79.044-9.874 131.503-36.856 151.704-78.028 21.773-44.372 9.35-77.485-9.536-93.678a7.5 7.5 0 0 1-.673-10.733c13.412-14.786 20.127-34.096 18.42-52.98-1.664-18.415-11.038-34.658-27.108-46.971-43.153-33.066-59.683-48.658-75.698-93.733-11.108-31.265-29.282-51.406-54.017-59.863-18.271-6.247-33.154-3.564-33.302-3.536a7.501 7.501 0 0 1-6.092-1.532c-11.826-9.533-28.425-14.477-46.13-14.477z" fill="#430c61"/><path d="M482.559 317.017c-8.283-10.348-16.637-25.399-16.698-33.553 0 12.976-.6-80.078-.6-80.078l-106.711.8.651 86.893c.143 19.019-17.992 42.883-17.992 42.883-17.092 34.384 87.733 100.656 87.733 100.656s75.656-90.067 53.617-117.602z" fill="#c16f58"/><path d="M428.938 442.12a7.47 7.47 0 0 1-4.004-1.161c-1.09-.689-26.963-17.112-51.181-38.106-35.347-30.641-48.188-54.267-39.26-72.228a7.56 7.56 0 0 1 .744-1.199c4.61-6.088 16.563-24.844 16.463-38.289l-.651-86.893a7.5 7.5 0 0 1 7.443-7.556l106.711-.8h.057a7.5 7.5 0 0 1 7.5 7.452c.184 28.532.468 70.318.563 79.37.023.23.036.464.038.699.037 4.932 6.095 17.73 15.054 28.923 11.501 14.369 5.603 39.81-18.032 77.777-16.254 26.111-34.911 48.4-35.697 49.336a7.495 7.495 0 0 1-5.747 2.676zm-81.253-104.297c-4.472 10.486 8.549 29.991 35.894 53.696 16.853 14.61 34.938 27.18 43.813 33.116 6.424-8.055 19.133-24.567 30.331-42.574 18.423-29.623 25.518-52.187 18.981-60.357-8.146-10.177-16.901-25.23-18.183-35.808a12.117 12.117 0 0 1-.185-2.008l-.027-2.606c-.021-2.227-.048-5.407-.077-9.225-.059-7.625-.131-17.792-.2-27.96-.088-12.706-.172-25.411-.223-33.155l-91.704.688.596 79.394c.147 19.659-15.874 42.51-19.016 46.799z" fill="#430c61"/><path d="M519.224 123.449C503.145 60.258 454.001 15.743 399.453 19.768c-54.547 4.026-96.624 55.274-103.252 120.14-19.417 1.629-33.944 18.592-32.506 38.07 1.446 19.599 18.507 34.314 38.106 32.867.468-.035.931-.086 1.393-.138 18.166 58.634 65.31 99.013 117.375 95.171 52.065-3.843 92.77-50.706 102.131-111.371.465-.016.931-.033 1.399-.068 19.599-1.446 34.314-18.507 32.867-38.106-1.438-19.477-18.298-34.124-37.743-32.885z" fill="#c16f58"/><g fill="#430c61"><path d="M413.613 313.636c-24.582.001-48.365-8.948-69.213-26.125-20.532-16.917-36.926-41.288-46.565-69.083-9.852-.289-19.228-3.918-26.793-10.443-8.714-7.516-13.979-17.976-14.826-29.453-1.576-21.348 12.916-40.399 33.205-45.127 4.188-30.973 16.405-59.637 34.716-81.231 20.046-23.641 46.598-37.805 74.765-39.884 28.172-2.076 56.51 8.034 79.809 28.476 21.282 18.672 37.575 45.231 46.265 75.254 20.767 1.696 37.896 18.413 39.472 39.763 1.637 22.172-13.894 41.721-35.312 45.571-5.454 28.909-18.093 55.426-35.919 75.174-19.937 22.086-44.866 34.822-72.095 36.831-2.508.185-5.014.277-7.508.277zM303.199 203.208a7.501 7.501 0 0 1 7.159 5.281c17.478 56.413 62.551 93.388 109.659 89.91 47.088-3.475 86.265-46.667 95.271-105.035a7.5 7.5 0 0 1 7.152-6.352c.368-.013.738-.025 1.11-.052 15.439-1.139 27.076-14.631 25.937-30.073-1.128-15.284-14.469-26.927-29.787-25.952a7.507 7.507 0 0 1-7.745-5.635c-15.385-60.466-62.447-101.707-111.95-98.05-49.482 3.652-90 51.353-96.343 113.423a7.498 7.498 0 0 1-6.834 6.711c-15.273 1.282-26.781 14.759-25.653 30.044.552 7.481 3.984 14.299 9.665 19.198 5.68 4.899 12.926 7.294 20.409 6.741.369-.027.736-.07 1.104-.111.283-.032.565-.048.846-.048z"/><path d="M296.201 139.909S418.886 88.728 422.408 25.205c1.093-19.708-131.503-19.244-126.207 114.704z"/><path d="M296.201 147.409a7.502 7.502 0 0 1-7.494-7.204c-1.145-28.941 3.864-54.096 14.887-74.767 9.354-17.542 22.775-31.539 39.894-41.602 29.29-17.22 64.605-19.258 79.208-10.357 6.628 4.039 7.356 9.34 7.201 12.141-3.738 67.443-125.621 119.047-130.808 121.21a7.497 7.497 0 0 1-2.888.578zM398.512 23.391c-9.555 0-22.233 1.854-35.88 7.594-21.97 9.242-57.64 33.989-59.042 97.348 11.461-5.425 30.957-15.329 50.421-28.32 26.455-17.659 58.246-44.688 60.809-73.823-2.243-1.441-8.132-2.799-16.308-2.799z"/><path d="M410.76 54.607s73.338 6.633 108.463 68.842c0 0-3.262-112.189-96.815-98.244"/><path d="M519.223 130.95a7.503 7.503 0 0 1-6.531-3.813C479.995 69.229 410.77 62.141 410.075 62.076c-4.12-.384-7.156-4.033-6.778-8.154a7.49 7.49 0 0 1 8.14-6.784c.795.072 19.746 1.874 43.259 11.635 20.601 8.552 38.287 20.613 52.304 35.532-4.288-16.339-12.418-35.906-27.787-48.743-14.318-11.96-33.058-16.313-55.698-12.939-4.09.609-7.913-2.215-8.523-6.312s2.216-7.913 6.313-8.524c27.085-4.038 49.827 1.45 67.584 16.311 35.71 29.889 37.764 86.728 37.834 89.133a7.5 7.5 0 0 1-7.497 7.719zm-216.151 86.775a7.502 7.502 0 0 1-7.189-5.377c-5.326-18.029-9.958-25.037-10.004-25.106-2.374-3.395-1.526-8.042 1.868-10.416 3.396-2.373 8.091-1.517 10.464 1.878.599.855 6.018 8.947 12.057 29.395a7.5 7.5 0 0 1-7.195 9.626zm219.684-16.214a7.5 7.5 0 0 1-7.437-8.547c2.975-21.112 7.146-29.911 7.611-30.845a7.501 7.501 0 0 1 13.451 6.639c-.121.259-3.618 7.912-6.208 26.298a7.502 7.502 0 0 1-7.417 6.455z"/></g><path d="M753.377 781.029c3.073 5.667 75.722 128.106 102.042 271.258 14.998 81.575 13.573 173.405.869 265.714-22.452 163.136-101.908 630.802-102.911 654.165H576.792L490.859 861.26" fill="#FFBE38"/><path d="M753.377 1979.667H576.792a7.5 7.5 0 0 1-7.478-6.921L483.38 861.84a7.5 7.5 0 0 1 14.955-1.157l85.398 1103.985h162.909c3.227-25.132 16.416-106.516 36.369-229.178 23.867-146.724 53.571-329.327 65.846-418.509 13.521-98.251 13.247-186.85-.815-263.335-22.982-125.001-82.512-236.105-100.209-267.179-.529-.929-.884-1.553-1.05-1.86a7.5 7.5 0 1 1 13.186-7.15c.143.262.447.795.898 1.588 17.993 31.593 78.519 144.568 101.927 271.89 14.353 78.058 14.663 168.257.923 268.092-12.299 89.365-42.02 272.068-65.899 418.873-19.593 120.441-36.513 224.458-36.948 234.591a7.501 7.501 0 0 1-7.493 7.178z" fill="#430c61"/><path d="m753.377 1972.166-3.222 39.363s-6.307 107.429-78.955 103.907c-68.493-3.32-66.756-109.152-66.756-109.152l-.264-34.118h149.198z" fill="#c16f58"/><path d="M674.671 2123.022c-1.267 0-2.544-.031-3.834-.094-31.463-1.525-54.243-22.667-65.879-61.141-8.204-27.126-8.042-53.43-8.015-55.528l-.264-34.034a7.503 7.503 0 0 1 7.5-7.558h149.197a7.5 7.5 0 0 1 7.475 8.111l-3.215 39.284c-.13 2.091-1.979 28.822-12.761 55.547-14.656 36.329-38.879 55.412-70.205 55.413zm-62.933-143.355.205 26.56v.181c-.015.981-.795 98.61 59.621 101.538 26.508 1.291 46.455-14.074 59.281-45.65 10.148-24.981 11.809-50.951 11.824-51.21.003-.054.007-.113.012-.167l2.558-31.25h-133.5zm369.824-117.134s-58.502-14.896-106.687 15.127c-53.154 33.119-53.854 87.035-53.854 87.035s60.525-3.946 112.172-44.722c47.459-37.47 48.368-57.44 48.368-57.44z" fill="#430c61"/><path d="M821.021 1972.195a7.497 7.497 0 0 1-7.499-7.598c.03-2.369 1.396-58.417 57.387-93.303 50.319-31.355 109.988-16.671 112.504-16.03a7.5 7.5 0 0 1 5.642 7.609c-.109 2.394-2.472 24.503-51.213 62.985-52.871 41.742-113.766 46.152-116.332 46.319a7.252 7.252 0 0 1-.488.016zm125.562-105.799c-19.653 0-45.072 3.505-67.742 17.63-20.441 12.737-35.113 30.133-43.606 51.704-3.156 8.017-4.832 15.167-5.72 20.372 18.309-2.821 61.393-12.298 99.032-42.015 28.171-22.241 38.982-37.757 43.086-45.805-5.905-.908-14.674-1.885-25.05-1.885z" fill="#430c61"/><path d="m929.827 1780.667 51.735 81.866s13.498 22.911 27.568 34.054c47.367 65.027 23.249 131.385-2.115 161.768-16.143 19.337-102.547 83.43-110.747 22.634 0-80.947-51.354-147.355-98.254-191.125-36.92-34.456-36.517-93.094.891-127.019 39.705-36.009 102.287-27.489 130.922 17.822z" fill="#c16f58"/><path d="M921.626 2114.059c-3.547 0-6.94-.423-10.131-1.343-8.789-2.535-19.854-9.923-22.66-30.725a7.462 7.462 0 0 1-.067-1.002c0-79.484-52.135-144.824-95.871-185.642-19.131-17.854-29.996-43.098-29.81-69.259.187-26.152 11.405-51.228 30.78-68.799 20.569-18.655 48.149-27.206 75.662-23.46 27.515 3.746 51.804 19.357 66.638 42.832l51.735 81.865c.042.066.082.133.122.2.127.215 12.976 21.854 25.762 31.982a7.526 7.526 0 0 1 1.406 1.463c22.039 30.256 31.585 64.541 27.605 99.148-3.041 26.442-13.985 52.627-30.025 71.842-11.158 13.365-57.753 50.894-91.146 50.897zm-17.859-33.596c2.174 15.039 9.471 17.144 11.885 17.84 23.599 6.799 73.594-30.366 85.605-44.755 22.307-26.72 47.776-88.634 2.384-151.754-14.315-11.769-27.331-33.417-28.478-35.348l-51.676-81.772c-12.462-19.72-32.866-32.835-55.981-35.982-23.118-3.147-46.282 4.037-63.563 19.708-16.515 14.978-25.698 35.503-25.857 57.795-.158 22.301 8.735 42.965 25.045 58.186 45.814 42.757 100.409 111.452 100.636 196.082z" fill="#430c61"/><path d="M215.422 872.76s-67.404 177.039 29.144 419.707c33.852 85.085 75.008 174.673 108.788 229.91 35.062 57.334 88.049 100.563 137.504 146.068l330.163 296.251s11.018-25.065 72.278-63.938c52.409-33.257 88.263-38.224 88.263-38.224s-142.142-225.033-154.531-244.361c-104.247-162.625-214.503-218.496-214.503-218.496l-73.623-440.692" fill="#FFBE38"/><path d="M821.051 1972.232a7.556 7.556 0 0 1-5.038-1.955l-330.163-296.25c-7.604-6.996-15.365-14.006-22.87-20.785-42.16-38.081-85.756-77.458-116.023-126.952-31.238-51.083-72.12-137.457-109.358-231.051-22.24-55.901-37.63-112.984-45.74-169.665-6.494-45.386-8.362-90.618-5.553-134.441 4.8-74.863 21.404-119.192 22.109-121.042a7.5 7.5 0 0 1 14.018 5.336c-.26.691-16.631 44.754-21.201 117.348-4.228 67.147 1.068 173.166 50.305 296.918 36.941 92.849 77.397 178.371 108.218 228.77 29.136 47.644 71.912 86.281 113.281 123.646 7.53 6.802 15.316 13.835 22.902 20.815l323.532 290.299c8.1-10.949 27.318-31.835 69.813-58.8 36.645-23.254 65.394-33.031 80.227-36.932-26.677-42.23-137.977-218.403-148.791-235.274-53.175-82.953-107.867-137.222-144.386-168.141-39.574-33.506-66.928-47.576-67.199-47.714a7.514 7.514 0 0 1-4.002-5.452l-73.623-440.692a7.5 7.5 0 0 1 6.161-8.633 7.497 7.497 0 0 1 8.634 6.162l73.018 437.069c8.673 4.833 33.119 19.438 66.207 47.393 37.434 31.624 93.464 87.12 147.819 171.914 12.261 19.128 153.137 242.153 154.558 244.403a7.5 7.5 0 0 1-5.311 11.435c-.329.047-35.134 5.31-85.273 37.127-57.693 36.61-69.357 60.471-69.469 60.708-.968 2.202-2.914 3.763-5.264 4.271a7.283 7.283 0 0 1-1.535.164z" fill="#430c61"/><path d="M566.276 1146.506c-29.362 0-54.714-21.226-59.635-50.464l-17.026-101.161a7.5 7.5 0 0 1 14.791-2.49l17.026 101.161c3.827 22.733 24.075 39.031 47.1 37.899 4.12-.193 7.654 2.988 7.857 7.125a7.501 7.501 0 0 1-7.125 7.858c-.999.049-1.997.073-2.988.073z" fill="#430c61"/><path d="m559.709 1393.421 52.818 6.255" fill="#FFBE38"/><path d="M612.537 1407.177c-.295 0-.592-.017-.892-.053l-52.818-6.255a7.5 7.5 0 0 1 1.764-14.896l52.818 6.255a7.502 7.502 0 0 1-.872 14.949z" fill="#430c61"/><path d="m524.96 1451.8 69.035-8.34" fill="#FFBE38"/><path d="M524.95 1459.301a7.5 7.5 0 0 1-.89-14.947l69.035-8.34a7.5 7.5 0 0 1 1.799 14.891l-69.035 8.34a7.553 7.553 0 0 1-.909.055z" fill="#430c61"/><path d="M896.262 2080.989c94.45-44.479 112.867-184.402 112.867-184.402s57.362 27.336 73.318 53.745 10.809 46.795-15.441 70.425c-26.25 23.629-29.853 28.726-29.853 28.726s-12.878 11.855-8.75 47.722l8.75 76.031c0 19.34-11.367 37.397-30.12 46.835-22.079 11.112-53.981 13.813-93.412 13.813H812.737s-.803-34.633 26.765-52.819c24.467-16.14 56.764-30.478 56.764-77.801l-.005-22.276z" fill="#ff8d61"/><path d="M913.622 2241.385H812.738a7.5 7.5 0 0 1-7.498-7.326c-.037-1.583-.546-39.015 30.134-59.253 2.81-1.854 5.754-3.705 8.601-5.495 22.021-13.848 44.793-28.168 44.793-66.045l-.005-22.274a7.502 7.502 0 0 1 4.305-6.787c89.706-42.245 108.448-177.236 108.627-178.595a7.498 7.498 0 0 1 10.662-5.791c2.425 1.156 59.587 28.625 76.511 56.637 9.041 14.963 11.985 28.633 9.002 41.792-2.881 12.705-11.093 24.807-25.845 38.086-22.908 20.621-28.121 26.728-28.789 27.547-.365.574-.411.632-.925 1.058-.871.987-9.843 11.987-6.456 41.411l8.75 76.031c.032.285.049.571.049.857 0 22.39-13.123 42.903-34.247 53.534-25.519 12.844-61.597 14.614-96.784 14.614zm-92.818-15h92.818c31.739 0 67.258-1.546 90.04-13.013 15.9-8.002 25.827-23.194 25.989-39.723l-8.699-75.586c-4.114-35.748 7.588-50.448 10.589-53.572 1.757-2.158 8.215-9.294 30.448-29.307 24.023-21.625 27.828-38.15 14.04-60.972-10.235-16.94-42.219-36.3-61.19-46.334-2.569 13.538-8.365 38.866-19.772 67.046-21.396 52.859-52.901 91.032-91.303 110.733l.004 17.607c0 46.166-28.726 64.23-51.808 78.745-2.907 1.828-5.652 3.555-8.326 5.318-16.601 10.95-21.431 29.008-22.83 39.058z" fill="#430c61"/><path d="M1101.75 2028.634c-8.677-46.175-6.334-59.236-19.302-78.301 15.956 26.409 10.809 46.795-15.441 70.425s-29.853 28.726-29.853 28.726l8.517-2.477a29.843 29.843 0 0 1 32.49 11.133l54.961 75.769 13.151-10.295s-39.15-66.392-44.523-94.981z" fill="#430c61"/><path d="M1133.122 2141.409a7.501 7.501 0 0 1-6.071-3.096l-54.961-75.77c-5.521-7.612-15.3-10.96-24.326-8.335l-8.517 2.477a7.501 7.501 0 0 1-8.218-11.532c.683-.965 5.383-6.946 30.96-29.97 24.023-21.625 27.829-38.15 14.04-60.972a7.5 7.5 0 0 1 12.62-8.097c10.079 14.818 11.831 26.603 15.012 47.997 1.296 8.713 2.908 19.556 5.46 33.138 5.067 26.97 43.227 91.904 43.612 92.556a7.5 7.5 0 0 1-1.838 9.715l-13.15 10.295a7.5 7.5 0 0 1-4.623 1.594zm-74.521-102.792c10.062 1.262 19.444 6.589 25.632 15.119l50.393 69.472 1.888-1.478c-9.713-16.954-37.47-66.889-42.134-91.711a742.31 742.31 0 0 1-4.127-24.232c-4.332 6.693-10.347 13.452-18.228 20.545a995.57 995.57 0 0 0-13.424 12.286zm-51.567 181.455c-22.079 11.112-53.981 13.813-93.412 13.813H812.738v17.606h144.08c47.834 0 85.363-27.174 80.336-78.254 0 19.34-11.367 37.397-30.12 46.835z" fill="#430c61"/><path d="M956.818 2258.991h-144.08a7.5 7.5 0 0 1-7.5-7.5v-17.606a7.5 7.5 0 0 1 7.5-7.5h100.884c31.739 0 67.258-1.546 90.04-13.013 16.032-8.068 25.991-23.448 25.991-40.136a7.5 7.5 0 0 1 7.132-7.491c3.99-.201 7.44 2.775 7.832 6.756 2.324 23.615-3.765 44.171-17.609 59.445-15.808 17.439-40.734 27.044-70.189 27.044zm-136.58-15h136.58c22.487 0 41.631-6.271 54.675-17.78-.358.188-.724.376-1.087.56-25.519 12.844-61.597 14.614-96.784 14.614h-93.384z" fill="#430c61"/><path d="M572.668 2233.885s-22.284-35.86-6.67-65.886c.213-.411.433-.823.658-1.236 37.531-68.978 37.805-158.986 37.805-158.986s28.915 60.471 70.151 73.212c40.902-19.537 75.543-69.46 75.543-69.46s-4.453 78.517 12.319 133.293c4.91 16.035 13.836 34.405 14.534 49.685.454 9.933-2.256 24.597-9.818 39.377H572.668z" fill="#ff8d61"/><path d="M767.189 2241.385H572.668a7.498 7.498 0 0 1-6.37-3.542c-1.002-1.612-24.338-39.873-6.954-73.304.236-.453.477-.904.722-1.356 36.156-66.451 36.894-154.549 36.896-155.431a7.5 7.5 0 0 1 14.266-3.21c.268.558 26.672 54.896 62.842 68.343 37.447-19.309 69.597-65.162 69.925-65.634a7.5 7.5 0 0 1 13.649 4.701c-.044.772-4.174 77.845 12.001 130.673 1.453 4.745 3.271 9.698 5.194 14.941 4.486 12.227 9.125 24.87 9.661 36.598.588 12.849-3.388 28.974-10.634 43.136a7.499 7.499 0 0 1-6.677 4.084zm-190.084-15h185.366c5.636-12.564 7.374-24.314 7.044-31.535-.431-9.417-4.664-20.956-8.759-32.116-1.908-5.201-3.882-10.58-5.454-15.716-11.509-37.587-13.304-85.205-13.21-112.977-14.25 16.848-37.793 41.079-64.248 53.715a7.488 7.488 0 0 1-5.446.398c-27.211-8.408-48.93-35.068-61.797-54.722-2.793 32.246-11.322 89.065-37.357 136.915-.201.37-.4.744-.594 1.116-10.798 20.764-.192 45.788 4.455 54.921z" fill="#430c61"/><path d="m572.668 2233.885 9.508 17.606h175.792l9.222-17.606z" fill="#430c61"/><path d="M757.968 2258.991H582.177a7.5 7.5 0 0 1-6.599-3.936l-9.509-17.606a7.501 7.501 0 0 1 6.598-11.064h194.521a7.502 7.502 0 0 1 6.644 10.98l-9.222 17.606a7.5 7.5 0 0 1-6.644 4.02zm-171.317-15H753.43l1.365-2.606H585.242l1.408 2.606zm188.769-52.723a7.501 7.501 0 0 1-7.151-5.249c-12.433-39.468-79.744-29.163-80.423-29.054a7.498 7.498 0 0 1-8.592-6.219 7.5 7.5 0 0 1 6.219-8.592c3.292-.527 80.824-12.325 97.103 39.358a7.5 7.5 0 0 1-7.155 9.756z" fill="#430c61"/><path d="m164.507 481.499 129.719-100.336 132.606 6.39 109.219-38.652 161.324 58.056 70.371 470.054-509.836 79.193z" fill="#FFF2E2"/><path d="M257.902 963.705a7.503 7.503 0 0 1-7.352-6.053l-93.402-474.704a7.496 7.496 0 0 1 2.77-7.38l129.72-100.337a7.484 7.484 0 0 1 4.95-1.559l131.133 6.319 107.829-38.159a7.498 7.498 0 0 1 5.042.013l161.324 58.056a7.498 7.498 0 0 1 4.877 5.947l70.37 470.053a7.498 7.498 0 0 1-6.266 8.521l-509.836 79.194c-.39.061-.777.09-1.159.09zm-85.143-479.108 91.118 463.09 495.347-76.943-68.603-458.247-154.592-55.633-106.695 37.759a7.515 7.515 0 0 1-2.863.421l-129.844-6.257z" fill="#430c61"/><path d="M523.761 875.901a7.501 7.501 0 0 1-7.411-6.415l-62.008-423.515a7.5 7.5 0 0 1 14.842-2.173l62.008 423.515a7.5 7.5 0 0 1-7.431 8.587zm-59.69-16.903a7.501 7.501 0 0 1-7.411-6.415l-45.608-311.506a7.5 7.5 0 0 1 6.334-8.507 7.497 7.497 0 0 1 8.508 6.334l45.608 311.506a7.5 7.5 0 0 1-7.431 8.587zM431.92 443.929c-1.979 0-3.91-.8-5.31-2.19-.34-.35-.66-.73-.93-1.14-.271-.41-.5-.85-.69-1.3s-.33-.92-.43-1.4c-.091-.49-.141-.98-.141-1.47s.05-.98.141-1.46c.1-.48.239-.95.43-1.41.19-.45.42-.88.69-1.29s.59-.79.93-1.14c1.75-1.74 4.34-2.54 6.77-2.05.48.1.95.24 1.41.43.45.19.88.42 1.29.69s.79.59 1.14.93c1.4 1.39 2.2 3.33 2.2 5.3a7.406 7.406 0 0 1-.58 2.87 7.429 7.429 0 0 1-2.76 3.37c-.411.27-.84.5-1.29.69-.46.19-.93.33-1.41.43-.479.09-.97.14-1.46.14zm39.66 315.16c-.6-4.09 2.23-7.9 6.33-8.5 4.1-.6 7.91 2.23 8.51 6.33a7.503 7.503 0 0 1-7.43 8.59c-3.66 0-6.87-2.69-7.41-6.42zm-11.77-80.39a7.496 7.496 0 0 1 6.33-8.51c4.1-.6 7.909 2.24 8.51 6.34.6 4.1-2.24 7.91-6.33 8.5-.37.06-.74.08-1.101.08-3.659 0-6.869-2.68-7.409-6.41zm-11.771-80.39c-.6-4.1 2.23-7.91 6.33-8.51 4.1-.6 7.91 2.23 8.51 6.33a7.503 7.503 0 0 1-6.34 8.51c-.37.06-.729.08-1.09.08-3.66 0-6.87-2.68-7.41-6.41zm-11.77-80.4a7.486 7.486 0 0 1 6.33-8.5c4.1-.6 7.909 2.23 8.51 6.33.6 4.1-2.24 7.91-6.33 8.51-.37.05-.74.08-1.1.08-3.66 0-6.87-2.69-7.41-6.42zm54.501 327.99c-.49 0-.98-.05-1.46-.15-.48-.09-.96-.24-1.41-.42a7.46 7.46 0 0 1-2.431-1.63 7.513 7.513 0 0 1-2.199-5.3c0-.49.05-.98.149-1.46.09-.48.24-.95.42-1.41a7.456 7.456 0 0 1 1.629-2.43 7.411 7.411 0 0 1 2.431-1.63c.45-.18.93-.33 1.41-.42.96-.2 1.96-.2 2.93 0 .479.09.95.24 1.4.42a7.451 7.451 0 0 1 2.43 1.63c.35.34.66.73.939 1.14.271.4.5.84.69 1.29.18.46.33.93.43 1.41.09.48.141.97.141 1.46a7.532 7.532 0 0 1-4.63 6.93c-.45.18-.921.33-1.4.42-.49.1-.98.15-1.47.15z" fill="#430c61"/><path d="M368.663 469.339s20.293-69.624 58.169-81.787l-79.889-62.149-45.962 48.614s23.789 69.78 67.682 95.321z" fill="#FFF2E2"/><path d="M368.661 476.838a7.496 7.496 0 0 1-3.771-1.017c-45.788-26.644-70-96.426-71.008-99.383a7.501 7.501 0 0 1 1.648-7.573l45.962-48.614a7.501 7.501 0 0 1 10.056-.767l79.89 62.149a7.498 7.498 0 0 1-2.313 13.06c-27.902 8.959-47.909 58.438-53.264 76.748a7.502 7.502 0 0 1-7.201 5.398zm-59.026-101.056c5.386 13.922 24.584 59.048 55.006 81.885 6.406-17.792 22.412-55.374 48.039-71.624l-64.966-50.539-38.079 40.277z" fill="#430c61"/><path d="M513.145 452.746s-44.151-62.413-86.313-65.193l55.727-70.535 49.157 31.884s14.093 47.551-18.571 103.844z" fill="#FFF2E2"/><path d="M513.144 460.246a7.496 7.496 0 0 1-6.12-3.167c-.422-.595-42.601-59.532-80.685-62.043a7.498 7.498 0 0 1-5.391-12.133l55.727-70.535a7.5 7.5 0 0 1 9.966-1.643l49.156 31.884a7.495 7.495 0 0 1 3.109 4.161c.613 2.068 14.623 51.322-19.273 109.74a7.5 7.5 0 0 1-6.488 3.736zm-72.76-77.748c30.404 9.108 58.738 40.45 71.639 56.447 20.155-41.145 15.069-75.907 13.094-85.385l-40.907-26.534-43.825 55.471z" fill="#430c61"/><path d="M626.254 436.597c-5.373-26.666-10.198-58.904-10.198-58.904s11.735-18.113 36.65-24.511 99.443 21.695 133.879 99.192 61.521 222.773 81.749 248.868c28.33 36.546 92.331 70.735 97.753 120.405 6.685 61.233-27.137 70.718-41.46 107.937-43.266 112.431-187.544 83.242-208.918.763-5.187-20.016-7.074-51.235-1.037-70.954 15.94-52.061-4.498-74.942-21.313-91.255-18.748-18.189-46.669-44.254-12.232-103.766 22.148-38.275-16.774-58.431-30.867-105.214" fill="#FFF2E2"/><path d="M821.548 1010.943c-2.395 0-4.8-.068-7.217-.206-51.117-2.911-94.657-35.195-105.881-78.509-5.449-21.029-7.524-53.554-.947-75.031 15.318-50.029-5.554-70.277-19.365-83.676l-.605-.587c-18.661-18.094-49.895-48.379-12.895-112.318 11.826-20.438 3.295-34.115-9.618-54.818-7.743-12.415-16.52-26.485-21.939-44.476a7.5 7.5 0 0 1 5.019-9.344c3.961-1.197 8.148 1.052 9.345 5.018 4.843 16.075 12.702 28.677 20.304 40.864 13.481 21.614 26.215 42.029 9.873 70.27-31.136 53.807-8.131 76.113 10.354 94.036l.609.591c14.422 13.991 41.266 40.034 23.262 98.834-5.7 18.617-3.675 48.352 1.125 66.877 9.609 37.077 47.528 64.75 92.214 67.295 46.551 2.646 84.83-23.096 102.444-68.871 5.199-13.511 12.632-23.427 19.819-33.018 13.573-18.111 25.296-33.752 21.185-71.412-3.291-30.147-31.265-54.975-58.317-78.986-14.392-12.773-27.985-24.838-37.908-37.638-11.019-14.215-22.412-55.476-36.837-107.716-13.52-48.96-28.842-104.453-45.838-142.701-18.366-41.332-46.88-65.068-67.565-77.701-24.262-14.819-47.338-19.905-57.595-17.271-16.974 4.359-26.973 14.741-30.627 19.215 1.338 8.667 5.346 34.03 9.663 55.454a7.501 7.501 0 0 1-14.705 2.963c-5.348-26.543-10.215-58.951-10.263-59.275a7.5 7.5 0 0 1 1.122-5.188c.545-.84 13.643-20.652 41.079-27.697 16.017-4.113 43.803 3.522 69.144 18.999 22.506 13.746 53.519 39.548 73.454 84.411 17.45 39.27 32.932 95.335 46.59 144.8 12.872 46.615 25.029 90.645 34.233 102.518 9.068 11.698 22.155 23.313 36.01 35.61 27.82 24.692 59.353 52.678 63.272 88.576 4.754 43.546-9.911 63.113-24.094 82.036-6.876 9.175-13.371 17.841-17.822 29.409-10.597 27.535-27.326 48.429-49.724 62.102-17.846 10.894-38.581 16.563-60.356 16.564z" fill="#430c61"/><path d="M237.022 472.905c-.914-21.095-3.9-44.479-3.9-44.479s-15.453-18.625-41.175-18.905-72.7 23.845-95.973 125.235C77.002 617.41 90.907 752.045 60.56 801.004 16.234 872.519.521 909.489 10.284 945.108c9.424 34.383 48.346 37.561 54.598 68.236 22.239 109.112 170.425 118.186 218.426 11.992 28.573-63.212-27-187.97-5.618-204.343 26.839-20.552 40.404-50.515-1.485-84.69-41.147-33.568-25.444-76.958-25.22-125.816" fill="#FFF2E2"/><path d="M171.005 1107.761c-4.582 0-9.155-.252-13.698-.762-51.125-5.736-89.355-41.049-99.772-92.158-2.526-12.396-11.962-19.599-22.888-27.94-12.261-9.36-26.156-19.969-31.596-39.811-10.915-39.823 7.792-80.11 51.135-150.036 16.507-26.631 19.32-84.507 22.041-140.478 2.103-43.232 4.275-87.937 12.438-123.497 10.639-46.348 27.11-81.424 48.959-104.252 16.328-17.061 35.931-26.808 53.868-26.808.18 0 .356 0 .537.003 28.862.314 46.144 20.746 46.864 21.615a7.496 7.496 0 0 1 1.668 3.839c.124.967 3.036 23.938 3.953 45.104a7.501 7.501 0 0 1-14.986.65c-.723-16.676-2.786-35.021-3.554-41.462-3.973-3.937-16.322-14.553-34.109-14.747a56.31 56.31 0 0 0-.412-.002c-28.126 0-67.923 31.213-88.169 119.416-7.864 34.263-10.005 78.291-12.075 120.869-2.942 60.541-5.723 117.724-24.273 147.653-46.384 74.832-57.93 107.114-49.418 138.168 4.1 14.957 14.85 23.165 26.231 31.854 12.208 9.32 24.833 18.958 28.482 36.867 9.073 44.512 42.313 75.261 86.748 80.247 49.678 5.571 95.796-21.843 117.495-69.846 15.106-33.422 4.769-87.23-3.539-130.465-7.725-40.208-12.828-66.771.195-76.743 10.041-7.689 22.058-19.928 22.283-34.571.189-12.329-7.868-25.233-23.95-38.353-35.097-28.633-32.422-63.63-29.59-100.682.769-10.059 1.564-20.461 1.612-30.98a7.501 7.501 0 0 1 7.499-7.466h.035a7.5 7.5 0 0 1 7.466 7.534c-.051 11.057-.867 21.731-1.656 32.054-2.743 35.889-4.909 64.236 24.116 87.916 19.815 16.166 29.729 33.058 29.466 50.207-.252 16.341-9.99 32.334-28.162 46.249-.311.238-3 2.762-1.759 17.915.962 11.749 3.979 27.458 7.176 44.089 8.706 45.317 19.543 101.716 2.476 139.473-12.493 27.641-32.331 49.566-57.367 63.407-18.874 10.435-40.386 15.929-61.771 15.929z" fill="#430c61"/><path d="m795.053 944.637-375.784-56.125.743-92.117 379.879-36.545c52.017-5.004 97.967 33.768 101.786 85.885 4.361 59.517-47.602 107.716-106.624 98.901z" fill="#c16f58"/><path d="M808.989 953.176c-4.991 0-10.017-.37-15.044-1.121L418.161 895.93a7.501 7.501 0 0 1-6.393-7.478l.744-92.117a7.5 7.5 0 0 1 6.782-7.405l379.879-36.544c27.182-2.615 53.649 5.644 74.521 23.256s33.466 42.311 35.461 69.547c2.246 30.653-9.39 60.221-31.923 81.122-18.807 17.444-43.063 26.866-68.244 26.866zM796.16 937.22c25.872 3.863 51.698-4.121 70.872-21.907 19.175-17.785 29.075-42.945 27.165-69.028-1.698-23.176-12.415-44.193-30.176-59.179s-40.283-22.015-63.412-19.789l-373.151 35.897-.637 78.843z" fill="#430c61"/><path d="m485.171 952.484 114.698-35.592s56.059 17.841 96.933 22.766c7.903.952 143.755 10.896 143.755 10.896a12.183 12.183 0 0 0 2.099-24.154l-76.358-20.765 87.991-2.301a12.183 12.183 0 0 0 11.294-12.152c.012-6.21-4.854-11.358-11.016-12.129l-102.241-12.786 93.106-18.609a12.181 12.181 0 0 0 8.086-13.477c-1.055-6.506-7.093-10.993-13.626-10.127l-81.878 6.271c-19.495 2.585-55.514-3.687-74.167-9.915l-.302-.246 40.583-39.763c5.333-6.216 4.842-15.526-1.115-21.147a15.34 15.34 0 0 0-18.311-2.059l-122.856 69.356-118.222 6.713c-33.036 1.876-58.56 29.737-57.54 62.811 1.243 40.319 40.562 68.362 79.087 56.407z" fill="#c16f58"/><path d="m599.869 916.893-364.487 113.104c-49.91 15.487-102.789-13.12-117.137-63.369-16.384-57.383 24.68-115.15 84.26-118.534l379.341-21.541" fill="#c16f58"/><path d="M207.633 1041.738c-16.476 0-32.79-4.099-47.725-12.179-24.021-12.995-41.378-34.613-48.875-60.873-8.438-29.553-3.065-60.87 14.742-85.921s45.619-40.417 76.305-42.16l379.341-21.541c4.132-.23 7.679 2.927 7.913 7.063a7.501 7.501 0 0 1-7.063 7.913L202.93 855.581c-26.11 1.483-49.776 14.558-64.929 35.875-15.152 21.316-19.725 47.964-12.544 73.112 6.38 22.345 21.149 40.741 41.588 51.798 20.438 11.058 43.919 13.355 66.114 6.467l364.487-113.104a7.498 7.498 0 0 1 9.386 4.94 7.5 7.5 0 0 1-4.94 9.386l-364.487 113.104c-9.865 3.062-19.949 4.579-29.972 4.579z" fill="#430c61"/><path d="M360.602 903.849a7.5 7.5 0 0 1-7.15-5.246 7.5 7.5 0 0 1 4.896-9.409l220.494-69.558 122.12-68.94c8.695-5.081 19.867-3.811 27.197 3.105 8.887 8.383 9.616 22.213 1.662 31.485a7.64 7.64 0 0 1-.443.474l-40.659 39.837a7.5 7.5 0 0 1-10.498-10.714l40.39-39.573a7.83 7.83 0 0 0-.744-10.598c-2.522-2.379-6.371-2.812-9.357-1.052l-.12.069-122.855 69.356a7.535 7.535 0 0 1-1.431.621l-221.241 69.793a7.498 7.498 0 0 1-2.259.349zm479.955 54.206c-.184 0-.366-.007-.549-.02-5.554-.407-136.118-9.968-144.104-10.93-41.104-4.953-95.993-22.328-98.31-23.066a7.5 7.5 0 0 1 4.549-14.294c.554.177 55.871 17.685 95.556 22.467 6.096.735 95.974 7.39 143.012 10.833a4.67 4.67 0 0 0 4.324-3.943 4.66 4.66 0 0 0-3.762-5.331 7.39 7.39 0 0 1-.585-.135l-76.358-20.765a7.501 7.501 0 0 1-5.27-9.205c1.088-3.998 5.22-6.355 9.205-5.269l76.102 20.695c10.354 2.118 17.139 11.867 15.484 22.348a19.632 19.632 0 0 1-19.204 16.613h-.09z" fill="#430c61"/><path d="M745.439 913.682a7.5 7.5 0 0 1-7.493-7.304 7.499 7.499 0 0 1 7.301-7.693l108.63-2.841a4.669 4.669 0 0 0 4.184-4.211 4.659 4.659 0 0 0-4.079-5.092l-102.585-12.829c-4.11-.514-7.025-4.263-6.512-8.373s4.251-7.022 8.373-6.511l102.585 12.829c10.64 1.331 18.173 10.734 17.149 21.407a19.631 19.631 0 0 1-18.156 17.752 8.163 8.163 0 0 1-.351.018l-108.846 2.846a6.72 6.72 0 0 1-.2.003zm108.85-10.347h.01z" fill="#430c61"/><path d="M742.554 875.722a7.499 7.499 0 0 1-1.462-14.855l102.271-20.441a4.67 4.67 0 0 0 2.753-5.042 4.657 4.657 0 0 0-5.237-3.892 7.041 7.041 0 0 1-.413.043l-81.678 6.255c-21.646 2.791-59.4-4.282-77.315-10.264a7.5 7.5 0 0 1-4.739-9.49 7.497 7.497 0 0 1 9.489-4.738c19.21 6.414 53.568 11.878 70.807 9.594.137-.018.274-.033.413-.043l81.694-6.257a19.591 19.591 0 0 1 21.786 16.391 19.633 19.633 0 0 1-13.065 21.775 7.735 7.735 0 0 1-.955.257l-102.871 20.561c-.496.099-.99.147-1.478.147zm-142.683 48.673a7.521 7.521 0 0 1-2.313-.366c-24.929-8.071-37.405-25.646-37.925-26.39a7.5 7.5 0 0 1 12.287-8.605c.174.243 10.393 14.292 30.258 20.724a7.5 7.5 0 0 1-2.308 14.638z" fill="#430c61"/><path d="m556.332 783.281-133.488 12.801-94.733-8.986A45.822 45.822 0 0 0 296 796.274l-92.532 70.542a12.183 12.183 0 0 0-2.374 15.537c3.442 5.62 10.73 7.484 16.448 4.205l65.22-37.398-53.184 73.79a12.182 12.182 0 0 0 1.203 15.671c4.625 4.696 12.146 4.862 16.973.375l81.26-76.171-66.975 83.607a12.18 12.18 0 0 0 2.112 15.574c4.89 4.419 12.407 4.148 16.966-.612l79.487-65.048 221.241-69.794s-.503-19.641-11.946-20.26c-22.28-1.205-13.568-23.012-13.568-23.012z" fill="#c16f58"/><path d="M239.449 949.79c-5.079 0-10.143-1.979-14.012-5.906a19.632 19.632 0 0 1-1.943-25.319l65.899-91.432a7.5 7.5 0 0 1 12.168 8.771l-65.899 91.432a4.67 4.67 0 0 0 .463 6.023 4.66 4.66 0 0 0 6.524.143l81.236-76.149a7.5 7.5 0 0 1 10.258 10.944l-81.26 76.17c-3.826 3.557-8.637 5.323-13.435 5.323z" fill="#430c61"/><path d="M272.325 972.689c-4.701 0-9.414-1.694-13.203-5.119a19.63 19.63 0 0 1-3.41-25.163c.146-.23.305-.452.475-.664l66.975-83.608a7.5 7.5 0 1 1 11.707 9.377l-66.659 83.215a4.667 4.667 0 0 0 .972 5.714 4.66 4.66 0 0 0 6.52-.235c.21-.219.433-.425.667-.617l79.487-65.048a7.483 7.483 0 0 1 2.493-1.348l220.494-69.557 122.173-68.97a7.5 7.5 0 0 1 7.375 13.062l-122.856 69.356a7.517 7.517 0 0 1-1.432.621l-219.864 69.359-78.059 63.878c-3.84 3.816-8.84 5.745-13.854 5.746z" fill="#430c61"/><path d="M211.438 895.705c-6.61 0-13.016-3.356-16.739-9.435a19.632 19.632 0 0 1 3.834-25.102c.126-.11.255-.215.388-.316l92.532-70.542a53.186 53.186 0 0 1 37.365-10.68l94.021 8.918 132.776-12.733a7.5 7.5 0 0 1 1.432 14.932l-133.488 12.801c-.473.045-.95.046-1.424 0l-94.733-8.986a38.2 38.2 0 0 0-26.855 7.676l-92.287 70.355a4.669 4.669 0 0 0-.77 5.841 4.657 4.657 0 0 0 6.32 1.616l65.222-37.398a7.5 7.5 0 0 1 10.236 2.776 7.5 7.5 0 0 1-2.775 10.237l-65.221 37.398a19.716 19.716 0 0 1-9.834 2.641z" fill="#430c61"/></svg></g></svg>