<svg xmlns="http://www.w3.org/2000/svg"  viewBox="0 0 256 256" width="512px" height="512px"><path fill="#F9D335" d="M225.971,136.948c0,11.484-1.974,22.503-5.613,32.738c-11.476,32.401-39.523,56.965-73.95,63.501 c-5.958,1.138-12.114,1.733-18.408,1.733c-54.111,0-97.971-43.86-97.971-97.971c0-39.989,23.952-74.373,58.293-89.599 c12.131-5.38,25.555-8.372,39.678-8.372c17.434,0,33.798,4.552,47.973,12.536C205.813,68.3,225.971,100.27,225.971,136.948z"/><path fill="#F9E27D" d="M134.475,234.704c-2.138,0.147-4.302,0.216-6.475,0.216c-54.111,0-97.971-43.86-97.971-97.971 c0-39.989,23.952-74.373,58.293-89.599c12.131-5.38,25.555-8.372,39.678-8.372c2.155,0,4.302,0.069,6.423,0.216 c-11.734,0.767-22.917,3.613-33.169,8.156C66.913,62.575,42.961,96.96,42.961,136.948 C42.961,188.887,83.372,231.384,134.475,234.704z"/><path fill="#F2C300" d="M225.971,136.948c0,11.484-1.974,22.503-5.613,32.738c-11.476,32.401-39.523,56.965-73.95,63.501 c-5.958,1.138-12.114,1.733-18.408,1.733c-2.173,0-4.328-0.069-6.458-0.216c4.052-0.259,8.036-0.776,11.933-1.517 c34.427-6.535,62.475-31.099,73.95-63.501c3.638-10.234,5.613-21.253,5.613-32.738c0-36.678-20.158-68.648-49.999-85.435 c-12.416-6.992-26.521-11.355-41.549-12.321c2.155-0.147,4.32-0.216,6.51-0.216c17.434,0,33.798,4.552,47.973,12.536 C205.813,68.3,225.971,100.27,225.971,136.948z"/><g><path fill="#FFBB98" d="M245.366,55.972l-54.24,51.758l-10.979,10.667c-0.558,5.838-2.263,11.578-5.117,16.858 c-2.083,3.878-4.797,7.511-8.126,10.742l-8.265,8.027l0.016,0.025l-20.081,19.646l-0.279,0.279l-12.127,11.865l-8.339,8.159 c-3.403,3.304-9.397,3.936-12.923,0.754c-3.632-3.288-3.887-8.765-0.836-12.365l6.83-6.551l-8.265,7.904 c-3.493,3.395-9.159,3.665-12.652,0.279c-3.624-3.51-3.608-9.29-0.016-12.775l-2.607,2.443 c-3.69,2.952-9.159,2.534-12.332-1.189c-3.083-3.616-2.583-9.077,0.82-12.381l6.535-6.256 c-3.534,2.829-8.708,2.567-11.93-0.754c-3.427-3.526-3.345-9.151,0.18-12.578c0.074-0.066,2.378-2.132,5.879-5.272 c8.446-7.56,23.844-21.352,31.659-28.354c2.952-2.64,4.821-4.313,4.821-4.313c5.215-4.674,9.159-8.511,12.718-11.52 c5.453-4.608,10.036-7.298,16.998-8.175c3.001-0.377,6.027-0.451,9.036-0.221l8.003-7.773l53.969-51.495 c3.247-3.157,8.446-3.083,11.594,0.164l8.011,8.241l0.107,0.106l12.103,12.463C248.687,47.625,248.613,52.815,245.366,55.972z"/><path fill="#FFBB98" d="M183.468,178.968c-3.149,3.911-8.749,4.395-12.496,1.394l-9.389-9.126 c3.714,3.608,3.608,9.667-0.402,13.128c-3.526,3.05-8.864,2.681-12.209-0.566l-10.397-10.102l-1.312-1.271 c0.41,0.484,0.754,1.009,1.033,1.55c1.869,3.55,1.181,8.109-2.115,10.922c-2.829,2.419-6.83,2.632-10.012,0.943 c-0.787-0.41-1.517-0.935-2.173-1.574L92.896,154.05l0.016-0.025l-8.265-8.036c-3.329-3.231-6.043-6.855-8.134-10.733 c-2.845-5.28-4.551-11.02-5.108-16.858l-10.996-10.684L10.631,60.799C7.384,57.65,7.31,52.46,10.467,49.205l20.22-20.802 c3.149-3.247,8.347-3.321,11.594-0.172l49.221,46.366l8.306,8.077c3.009-0.23,6.035-0.156,9.036,0.221 c5.912,0.746,11.438,3.321,15.874,7.289l0.992,0.886l49.32,44.187l5.887,5.272c3.526,3.419,3.608,9.052,0.18,12.578 c-3.222,3.313-8.396,3.583-11.93,0.746l13.324,12.956C185.822,170.039,186.379,175.352,183.468,178.968z"/><path fill="#FFCAA6" d="M105.944,150.003l0.026-0.026l-9.302-9.038c-8.853-8.601-13.821-19.674-14.904-31.063L69.529,98.011 l-8.919,9.526l-0.198,0.172l10.993,10.689C72.37,128.519,76.782,138.35,84.644,146l8.271,8.02l-0.013,0.026l31.09,30.218 c3.33,3.237,8.668,3.647,12.196,0.634c0.819-0.7,1.48-1.519,1.969-2.392L105.944,150.003z"/><path fill="#87828E" d="M91.502,74.596l-0.32,0.312L69.535,98.006l-8.929,9.528l-0.197,0.18L10.631,60.799 c-3.309-3.2-3.247-8.454-0.164-11.586v-0.008l20.22-20.802c3.149-3.247,8.347-3.321,11.594-0.172L91.502,74.596z"/><path fill="#FFAA80" d="M233.321,31.808c-51.526,51.551-72.615,71.453-78.199,76.315c-5.92,5.166-14.849,4.829-20.36-0.779 c-0.877-0.885-2.296-0.926-3.214-0.082l-7.289,6.699c-3.304,2.944-8.372,2.657-11.315-0.648 c-0.215-0.242-0.487-0.574-0.81-0.986c-2.321-2.964-1.948-7.228,0.858-9.739c0,0,0.001-0.001,0.001-0.001 c5.215-4.674,9.159-8.511,12.718-11.52c5.453-4.608,10.036-7.298,16.998-8.175c3.001-0.377,6.027-0.451,9.036-0.221 l8.003-7.773l53.969-51.495c3.247-3.157,8.446-3.083,11.594,0.164L233.321,31.808z"/><path fill="#A4A4A5" d="M69.535,98.006l-8.929,9.528l-0.197,0.18L10.631,60.807c-3.159-2.926-3.39-8.316-0.164-11.594v-0.008 l3.739-3.837C14.928,46.499,29.316,58.927,69.535,98.006z"/><path fill="#5FCDFF" d="M245.363,55.973l-54.235,51.763L174.228,89.7c-0.04-0.04-0.079-0.093-0.119-0.132 c-9.091-9.71-7.354-7.84-14.363-14.666l53.971-51.499c3.25-3.157,8.443-3.079,11.588,0.172l8.02,8.232l0.106,0.106 l12.103,12.473C248.692,47.622,248.613,52.815,245.363,55.973z"/><path fill="#73D7F9" d="M230.5,29.21c-18.207,18.207-51.434,49.94-59.216,57.762c-9.092-9.711-4.549-5.265-11.537-12.07 l53.971-51.499c3.25-3.157,8.443-3.079,11.588,0.172L230.5,29.21z"/></g><g><path fill="#5F266D" d="M248.4,41.591l-20.22-20.81c-4.717-4.863-12.449-4.918-17.22-0.27l-30.46,29.06 c-33.074-19.957-75.023-19.521-107.84,1.78c-0.02-0.019-27.615-26.018-27.64-26.03c-4.776-4.612-12.492-4.564-17.2,0.29 c-0.054,0.056-20.33,20.92-20.38,20.98c-4.188,4.443-4.744,11.919,0.45,17.11c0,0.012,29.042,27.39,29.06,27.39 c-6.99,13.8-10.92,29.38-10.92,45.86c0,56.19,45.71,101.93,101.9,101.97c56.375,0,102.04-45.829,102.04-101.97 c0-17.68-4.53-34.33-12.49-48.84c0.012-0.012,30.67-29.253,30.67-29.27C252.951,54.184,253.138,46.475,248.4,41.591z M216.5,26.271c1.731-1.667,4.37-1.541,5.94,0.09l20.22,20.81c1.633,1.675,1.564,4.306-0.06,5.91c0,0-3.615,3.44-51.31,48.97 c-24.337-25.973-20.621-22.109-25.78-27.13C195.514,46.291,181.488,59.673,216.5,26.271z M132.001,136.892 c-1.584-1.541-4.116-1.505-5.657,0.078c-1.541,1.583-1.505,4.116,0.078,5.657l32.596,31.713c0,0.001,0.001,0.001,0.002,0.002 c1.794,1.984,1.708,5.137-0.45,6.99c-1.89,1.64-4.88,1.46-6.8-0.4c-12.253-11.9-3.09-2.846-31.836-31.544 c-1.564-1.562-4.097-1.559-5.657,0.004c-1.561,1.563-1.559,4.096,0.004,5.657c0.42,0.42,19.544,19.474,19.908,19.943 c1.748,2.113,1.424,5.134-0.59,6.86c-2.013,1.703-4.968,1.302-6.82-0.45c-40.477-39.345-24.776-24.103-39.35-38.29 c-6.801-6.568-11.131-15.453-12.04-25.09c-0.09-0.95-0.52-1.83-1.2-2.49l-8.16-7.93l25.59-27.31l5.41,5.25 c0.82,0.8,1.94,1.2,3.08,1.12c7.223-0.548,13.66,0.496,19.417,4.528c-2.854,2.591-5.65,5.236-9.202,8.419 c-4.363,3.904-4.951,10.575-1.339,15.186c0.386,0.493,0.712,0.888,0.972,1.18c4.314,4.843,11.876,5.505,17.009,0.932l6.139-5.642 c3.991,3.417,9.109,4.902,14.087,4.42c0.241,0.219,30.726,27.532,30.988,27.767c1.859,1.838,1.942,4.916,0.05,6.87 c-1.728,1.778-4.463,1.979-6.432,0.505l-27.463-26.637c-1.586-1.538-4.118-1.5-5.656,0.086s-1.5,4.118,0.086,5.656 c35.657,34.585,22.597,21.897,40.935,39.75c1.93,1.86,2.21,4.84,0.65,6.78c-1.67,2.07-4.66,2.45-6.74,0.88 C155.213,159.483,175.9,179.602,132.001,136.892z M107.598,191.791c-1.886-1.708-2.209-4.621-0.586-6.679 c1.292-1.239,4.728-4.535,6.099-5.85c0.003,0.003,7.048,6.858,7.051,6.861l-5.117,5.007 C112.942,193.171,109.324,193.348,107.598,191.791z M99.856,180.865c-2.033,1.973-5.213,2.097-7.092,0.273 c-2.054-1.986-1.894-5.146-0.049-6.97l7.567-7.365l7.044,6.844C105.17,175.8,106.666,174.348,99.856,180.865z M84.764,170.638 c-2.075,1.574-4.991,1.261-6.696-0.743c-1.628-1.906-1.386-5.011,0.547-6.887c8.201-7.851,8.955-8.617,8.955-8.617 c0.306,0.298,6.898,6.759,6.973,6.833C86.45,169.1,88.155,167.471,84.764,170.638z M79.759,150.822 c-2.033,1.52-4.885,1.251-6.592-0.697c-1.793-2.044-1.506-4.951,0.231-6.698c0.071-0.065,2.136-1.914,2.214-1.984 c3.417,5.022,5.459,6.379,6.209,7.379L79.759,150.822z M176.17,118.021c-0.35,3.68-1.19,7.24-2.5,10.65 c-1.985-1.779-17.506-15.686-17.903-16.042c0.684-0.454,1.353-0.939,1.986-1.492c1.665-1.453,1.836-3.979,0.384-5.644 c-1.453-1.665-3.979-1.835-5.644-0.384c-4.323,3.772-10.858,3.522-14.888-0.58c-2.404-2.428-6.254-2.519-8.763-0.212l-7.243,6.657 c-1.644,1.465-4.185,1.344-5.665-0.318c-0.173-0.195-0.391-0.463-0.65-0.795c-1.021-1.304-0.855-3.189,0.38-4.294 c5.228-4.685,9.161-8.511,12.629-11.444c5.674-4.795,11.22-8.374,23.147-7.463c1.139,0.088,2.269-0.319,3.091-1.119l5.219-5.069 c5.647,5.546,0.37,0.021,25.779,27.129l-8.17,7.93C176.68,116.191,176.26,117.071,176.17,118.021z M174.48,55.311 c-22.606,21.572-15.179,14.445-24.262,23.267c-11.066-0.425-17.915,2.339-24.421,7.291c-7.256-5.743-15.409-7.658-24.457-7.288 c-8.93-8.691-3.974-3.966-22.67-21.57C108.06,38.778,144.965,38.421,174.48,55.311z M13.32,57.831c-1.597-1.618-1.52-4.29,0-5.81 c0.14-0.168,20.088-20.673,20.24-20.83c1.631-1.694,4.228-1.642,5.88-0.15c0.021,0.041,46.367,43.688,46.4,43.72l-25.59,27.3 C60.245,102.057,13.315,57.826,13.32,57.831z M221.97,136.951c0,51.665-42.008,93.97-94.04,93.97 c-51.78-0.04-93.9-42.19-93.9-93.97c0-14.34,3.23-27.94,9.01-40.12c17.578,16.569,12.366,11.59,24.55,23.43 c0.61,4.889,1.95,9.599,3.99,14.049c-0.092,0.082-3.645,3.266-3.733,3.352c-5.068,4.927-5.321,13.133-0.14,18.347 c1.188,1.193,2.548,2.116,4.006,2.752c-3.697,4.86-3.692,11.685,0.273,16.334c2.942,3.452,7.256,4.986,11.428,4.46 c0.416,2.792,1.731,5.346,3.788,7.337c2.944,2.854,7.031,3.969,10.92,3.362c0.466,2.776,1.846,5.422,4.108,7.469 c5.079,4.583,13.527,3.864,18.405-0.863c0.002-0.002,6.502-6.369,6.506-6.369c3.94,1.081,8.33,0.273,11.65-2.55 c1.63-1.39,2.83-3.1,3.6-4.97l3.81,3.7c4.87,4.73,12.61,5.04,17.6,0.72c1.58-1.36,2.79-3.08,3.55-4.97 c0.184,0.177,0.943,0.92,1.13,1.07c5.52,4.43,13.65,3.53,18.1-2.01c4.13-5.13,3.56-12.83-1.3-17.54l-5.37-5.22 c1.48-0.65,2.86-1.6,4.06-2.83c4.953-5.098,4.852-13.253-0.27-18.23c-0.04-0.04-3.688-3.302-3.73-3.34 c2.04-4.45,3.38-9.16,4-14.05c12.496-12.143,6.406-6.286,27.51-26.43C218.18,106.761,221.97,121.421,221.97,136.951z"/><path fill="#5F266D" d="M220.11,66.441l13.13-12.31c1.61-1.52,1.69-4.05,0.18-5.66s-4.05-1.69-5.66-0.18l-13.12,12.32 c-1.62,1.51-1.7,4.04-0.18,5.65C215.961,67.878,218.529,67.94,220.11,66.441z"/><path fill="#5F266D" d="M207.99,77.811l1.18-1.11c1.53-1.39,1.757-3.977,0.18-5.65c-1.482-1.57-3.977-1.717-5.65-0.18l-1.19,1.11 c-1.61,1.51-1.69,4.04-0.18,5.65C203.847,79.244,206.357,79.339,207.99,77.811z"/></g></svg>