<svg xmlns="http://www.w3.org/2000/svg" viewBox="0 0 3000 2625" width="3000" height="2625"><g transform="translate(575.25 827.25) rotate(0.0 952.5 807.0) scale(1.0342805642122637 1.0343713790592988)"><svg width="1841.86" height="1560.368" viewBox="0 0 1841.86 1560.368"><path d="M1053.599 1516.485H788.261v-429.632h265.338z" fill="#d2c1f0"/><path d="M572.863 1560.368h696.135c7.993 0 14.473-6.48 14.473-14.474v-21.926c0-7.994-6.481-14.473-14.473-14.473H572.863c-7.993 0-14.473 6.479-14.473 14.473v21.926c0 7.993 6.48 14.474 14.473 14.474" fill="#d2c1f0"/><path d="M1053.599 1194.521v-107.668H788.261v38.492z" fill="#3c191e"/><path d="M1776.36 1086.853H65.499c-29.271 0-53-23.729-53-53V65.499c0-29.271 23.729-53 53-53H1776.36c29.272 0 53 23.729 53 53v968.354c0 29.271-23.728 53-53 53" fill="#fff"/><path d="M1776.361 1099.352H65.499c-36.117 0-65.499-29.383-65.499-65.5V65.499C0 29.383 29.383 0 65.499 0h1710.862c36.116 0 65.499 29.383 65.499 65.499v968.353c0 36.118-29.382 65.5-65.499 65.5M65.499 25C43.168 25 25 43.168 25 65.499v968.353c0 22.333 18.168 40.5 40.5 40.5h1710.862c22.332 0 40.499-18.168 40.499-40.5V65.499c0-22.332-18.168-40.5-40.499-40.5H65.499" fill="#d2c1f0"/></svg></g><g transform="translate(893.25 1020.0) rotate(0.0 598.125 390.0) scale(1.2600713540092126 1.2597814763669841)"><svg width="949.351" height="619.155" viewBox="0 0 949.351 619.155"><path d="m921.067 613.805-892.769.35c-12.866.004-23.299-10.425-23.299-23.291V28.291C5 15.428 15.428 5 28.291 5H921.06c12.863 0 23.291 10.428 23.291 23.291v562.223c0 12.86-10.423 23.287-23.283 23.291z" fill="#fff"/><path d="M28.291 619.155c-7.555 0-14.658-2.941-20.001-8.283C2.944 605.528 0 598.422 0 590.864V28.291C0 12.691 12.691 0 28.291 0H921.06c15.6 0 28.291 12.691 28.291 28.291v562.223c0 15.594-12.688 28.285-28.281 28.291l-892.769.35h-.01zm0-609.155C18.205 10 10 18.206 10 28.291v562.573c0 4.887 1.903 9.481 5.359 12.936a18.17 18.17 0 0 0 12.932 5.355h.006l892.769-.35c10.083-.003 18.285-8.208 18.285-18.291V28.291c0-10.085-8.205-18.291-18.291-18.291z" fill="#fae2ce"/><path d="M5 145.96h939.351V27.999c0-12.703-10.297-23-23-23H28c-12.703 0-23 10.298-23 23z" fill="#fae2ce"/><g fill="#fff"><circle cx="64.392" cy="72.593" r="24.456"/><circle cx="145.911" cy="72.593" r="24.456"/><circle cx="227.429" cy="72.593" r="24.456"/></g></svg></g><g transform="translate(1579.5 237.0) rotate(0.0 562.125 698.625) scale(1.369498404840417 1.3701847408146874)"><svg width="820.921" height="1019.753" viewBox="0 0 820.921 1019.753"><path d="M820.921 1019.753H0V0h820.921z" fill="#D2C1F0"/><path d="M20 40.716h780.92v938.321H20z" fill="#fff"/><path d="M696.237 239.153H383.239a5 5 0 1 1 0-10h312.998a5 5 0 1 1 0 10zm0 80.101H383.239a5 5 0 1 1 0-10h312.998a5 5 0 1 1 0 10zm-34.341 80.099H383.239a5 5 0 1 1 0-10h278.657a5 5 0 1 1 0 10zm34.341 80.1H383.239a5 5 0 1 1 0-10h312.998a5 5 0 1 1 0 10zm-60.814 80.1H124.684a5 5 0 1 1 0-10h510.739a5 5 0 1 1 0 10zm60.814 80.1H124.684a5 5 0 1 1 0-10h571.552a5 5 0 0 1 .001 10zm-303.012 80.1H124.684a5 5 0 1 1 0-10h268.541a5 5 0 1 1 0 10zm-107.861 80.1h-160.68a5 5 0 1 1 0-10h160.68a5 5 0 1 1 0 10z"/><g fill="#FAE2CE"><path d="M124.691 448.475c0-77.935 188.343-77.935 188.343 0v9.878c0 8.891-7.209 16.1-16.1 16.1h-156.15c-8.891 0-16.1-7.209-16.1-16.1v-9.878z"/><path d="M296.934 479.453h-156.15c-11.635 0-21.1-9.465-21.1-21.1v-14.879h.243c1.707-17.772 12.605-32.639 31.776-43.216 17.807-9.824 41.657-15.235 67.159-15.235 25.501 0 49.352 5.411 67.158 15.235 20.943 11.555 32.013 28.228 32.013 48.216v9.879c.001 11.635-9.464 21.1-21.099 21.1zm-167.25-25.979v4.879c0 6.12 4.979 11.1 11.1 11.1h156.149c6.121 0 11.1-4.979 11.1-11.1v-9.879c0-20.373-14.598-32.704-26.844-39.46-16.352-9.022-38.487-13.991-62.327-13.991s-45.976 4.969-62.328 13.991c-12.246 6.756-26.844 19.087-26.844 39.46z"/><circle cx="218.856" cy="289.357" r="55.204"/><path d="M218.856 349.561c-33.196 0-60.204-27.008-60.204-60.204s27.007-60.204 60.204-60.204 60.204 27.008 60.204 60.204-27.008 60.204-60.204 60.204zm0-110.408c-27.682 0-50.204 22.521-50.204 50.204s22.521 50.204 50.204 50.204 50.204-22.521 50.204-50.204-22.522-50.204-50.204-50.204z"/></g><path d="M548.117 40.714H272.804c-11.243 0-20.357-9.114-20.357-20.357C252.447 9.114 261.561 0 272.804 0h275.313c11.243 0 20.357 9.114 20.357 20.357 0 11.243-9.114 20.357-20.357 20.357z" fill="#E51B26"/><path d="M512.827 93.107H308.094c-8.271 0-15-6.729-15-15V25.762a5 5 0 1 1 10 0v52.345c0 2.757 2.243 5 5 5h204.733c2.757 0 5-2.243 5-5V25.762a5 5 0 1 1 10 0v52.345c0 8.272-6.729 15-15 15z"/><circle cx="579.044" cy="807.153" fill="#D2C1F1" r="117.774"/><path d="M569.888 864.1c-2.261 0-4.471-.767-6.256-2.198l-48.441-38.845c-4.309-3.455-5.001-9.749-1.545-14.058 3.456-4.308 9.749-4.999 14.057-1.546l40.141 32.188 59.405-84.288c3.181-4.515 9.42-5.596 13.935-2.413 4.515 3.182 5.595 9.42 2.413 13.935l-65.535 92.985a10.002 10.002 0 0 1-8.174 4.24z" fill="#fff"/></svg></g><g transform="translate(1986.0 1065.0) rotate(18.05533361728068 305.25 399.75) scale(1.009496376230453 1.0051634852205136)"><svg width="604.757" height="795.393" viewBox="0 0 604.757 795.393"><g fill="#3C191E"><path d="M41.689 794.676c-8.347 1.719-17.34.385-25.171-4.433-16.319-10.041-21.409-31.41-11.369-47.729l164.263-266.981c10.039-16.32 31.408-21.409 47.729-11.369 16.32 10.041 21.409 31.41 11.369 47.729L64.247 778.874c-5.222 8.488-13.51 13.939-22.558 15.802z"/><path d="M392.857 525.058c-66.362 13.665-134.336 1.735-192.304-33.931-60.347-37.129-102.624-95.537-119.042-164.463-16.417-68.927-5.011-140.121 32.119-200.467C190.275 1.62 353.986-37.374 478.563 39.272c124.575 76.648 163.569 240.356 86.921 364.932l-14.774-9.09 14.774 9.09c-37.129 60.347-95.537 102.624-164.463 119.041a270.364 270.364 0 0 1-8.164 1.813zm-99.716-485.6c-60.173 12.391-115.305 48.588-149.963 104.918-66.623 108.282-32.729 250.579 75.555 317.202 50.384 30.999 109.474 41.369 167.152 29.494a235.744 235.744 0 0 0 7.097-1.576c59.912-14.271 110.68-51.017 142.953-103.472 66.623-108.283 32.73-250.58-75.553-317.204-51.954-31.966-111.742-40.792-167.241-29.363z"/></g></svg></g><g transform="translate(337.5 1540.5) rotate(0.0 196.125 450.0) scale(0.9595696431061435 0.9603452120922401)"><svg width="408.777" height="937.163" viewBox="0 0 408.777 937.163"><path d="m285.993 907.541-74.355 19.224L0 108.205 5.851 7.617C6.299-.084 16.358-2.685 20.483 3.834L74.355 88.98z" fill="#d2c1f0"/><g fill="#3c191e"><path d="M2.671 62.283 49.76 50.108 20.361 3.642C16.31-2.761 6.431-.217 5.976 7.346zm229.076 857.035a5.002 5.002 0 0 1-4.837-3.75L17.028 103.802a5.001 5.001 0 0 1 3.589-6.093 5.005 5.005 0 0 1 6.093 3.589l209.882 811.767a5 5 0 0 1-4.845 6.253zm28.429-7.351a5.002 5.002 0 0 1-4.837-3.75L88.657 263.535a5 5 0 0 1 9.682-2.503l166.683 644.683a5 5 0 0 1-4.846 6.252z"/></g><path d="m345.237 68.237 55.622 12.943c5.296 1.232 8.761 5.792 7.739 10.185l-7.899 33.947-11.18 19.016 1.692 21.759-139.393 599.05a6.905 6.905 0 0 1-1.027 2.328l-32.725 47.991c-8.245 12.092-30.918 6.816-32.979-7.674l-8.177-57.508a6.908 6.908 0 0 1 .106-2.542L316.41 148.68l10.005-18.531-.517-22.244 7.899-33.947c1.022-4.392 6.144-6.954 11.44-5.721z" fill="#e51b26"/><path d="m316.4 148.67 9.486-40.776 74.803 17.403-9.486 40.776zM25.818 917.005V429.309c0-8.371 6.786-15.157 15.157-15.157H370.66c8.371 0 15.157 6.786 15.157 15.157v487.696c0 8.371-6.786 15.157-15.157 15.157H40.975c-8.371.001-15.157-6.785-15.157-15.157z" fill="#fae2ce"/><path d="M285.993 937.163a5 5 0 0 1-5-5V411.895a5 5 0 1 1 10 0v520.268a5 5 0 0 1-5 5z" fill="#3c191e"/></svg></g><g transform="translate(2141.25 1938.0) rotate(0.0 -184.125 158.25) scale(-1.0517912583507798 1.053514544492266)"><svg width="350.117" height="300.423" viewBox="0 0 350.117 300.423"><path d="M286.87 300.423H0s63.247 0 63.247-150.211C63.247 36.141 36.141 0 36.141 0h286.87s27.102 42.917 27.106 150.211c.005 150.212-63.247 150.212-63.247 150.212z" fill="#FAE2CE"/><path d="M278.275 67.146H109.757a5 5 0 1 1 0-10h168.518a5 5 0 1 1 0 10zm0 45.176H109.757a5 5 0 1 1 0-10h168.518a5 5 0 1 1 0 10zm0 45.177H109.757a5 5 0 1 1 0-10h168.518a5 5 0 1 1 0 10z" fill="#3C191E"/></svg></g><g transform="translate(2404.5 1938.0) rotate(0.0 -179.25 157.125) scale(-1.0161737444514363 1.0155868750949335)"><svg width="352.794" height="309.427" viewBox="0 0 352.794 309.427"><path d="M309.427 309.427H0S43.367 186.416 43.367 0h309.427c0 186.416-43.367 309.427-43.367 309.427z" fill="#E51B26"/><path d="M296 84.406H94.864a5 5 0 1 1 0-10H296a5 5 0 1 1 0 10zm-8.131 81.729H86.733a5 5 0 1 1 0-10h201.136a5 5 0 1 1 0 10z" fill="#3C191E"/></svg></g></svg>