<svg xmlns="http://www.w3.org/2000/svg"  viewBox="0 0 64 64" width="512px" height="512px"><path fill="#eaeaea" d="M40,61H24V50c0-3.866,3.134-7,7-7h2c3.866,0,7,3.134,7,7V61z"/><polygon fill="#759acc" points="32,43 29,49 32,56 35,49"/><circle cx="32" cy="37" r="6" fill="#ffdbac"/><path fill="#495867" d="M34.221,35.249C35.903,35.632,37.184,36.4,38,37c0-3.314-2.686-6-6-6s-6,2.686-6,6 c1.67-1.25,3.75-2,6-2C32.763,35,33.506,35.086,34.221,35.249z"/><polygon fill="#fe5f55" points="32,7 34.163,11.609 39,12.348 35.5,15.935 36.326,21 32,18.609 27.674,21 28.5,15.935 25,12.348 29.837,11.609"/><polygon fill="#fe5f55" points="10,17 11.236,19.633 14,20.056 12,22.106 12.472,25 10,23.633 7.528,25 8,22.106 6,20.056 8.764,19.633"/><polygon fill="#fe5f55" points="54,17 55.236,19.633 58,20.056 56,22.106 56.472,25 54,23.633 51.528,25 52,22.106 50,20.056 52.764,19.633"/><path fill="#eaeaea" d="M17,60H3V50c0-3.314,2.686-6,6-6h2c3.314,0,6,2.686,6,6V60z"/><polygon fill="#759acc" points="10,44 8,49 10,55 12,49"/><circle cx="10" cy="39" r="5" fill="#ffdbac"/><path fill="#495867" d="M14.974,38.738C14.835,36.101,12.672,34,10,34s-4.835,2.101-4.974,4.738C6.394,37.655,8.117,37,10,37 S13.606,37.655,14.974,38.738z"/><path fill="#eaeaea" d="M61,60H47V50c0-3.314,2.686-6,6-6h2c3.314,0,6,2.686,6,6V60z"/><polygon fill="#759acc" points="54,44 52,49 54,55 56,49"/><circle cx="54" cy="39" r="5" fill="#ffdbac"/><path fill="#495867" d="M58.974,38.738C58.835,36.101,56.672,34,54,34s-4.835,2.101-4.974,4.738 C50.394,37.655,52.117,37,54,37S57.606,37.655,58.974,38.738z"/><path fill="#333" d="M36.13,42.639C37.866,41.364,39,39.314,39,37c0-3.859-3.14-7-7-7s-7,3.141-7,7 c0,0.003,0,0.005,0,0.008c0,0.001,0,0.001,0,0.002h0c0.003,2.31,1.136,4.356,2.869,5.629C25.01,43.86,23,46.699,23,50v11 c0,0.553,0.448,1,1,1h16c0.552,0,1-0.447,1-1V50C41,46.699,38.99,43.86,36.13,42.639z M32,45.236l1.898,3.796L32,53.461 l-1.898-4.429L32,45.236z M32,32c2.047,0,3.806,1.239,4.578,3.004C35.151,34.348,33.602,34,32,34s-3.151,0.348-4.578,1.004 C28.194,33.239,29.953,32,32,32z M27.05,37.491C28.525,36.517,30.223,36,32,36s3.475,0.517,4.95,1.491C36.7,40.015,34.589,42,32,42 S27.3,40.015,27.05,37.491z M39,60H25V50c0-3.094,2.354-5.647,5.365-5.966l-2.259,4.518c-0.131,0.263-0.141,0.571-0.024,0.841l3,7 C31.238,56.762,31.6,57,32,57s0.762-0.238,0.919-0.606l3-7c0.116-0.27,0.107-0.578-0.024-0.841l-2.259-4.518 C36.646,44.353,39,46.906,39,50V60z"/><path fill="#333" d="M21.519,18.35l-1.905,0.609c0.219,0.685,0.498,1.357,0.829,1.999l1.777-0.918 C21.939,19.497,21.704,18.929,21.519,18.35z"/><path fill="#333" d="M24.408,22.96c-0.441-0.421-0.851-0.882-1.216-1.37l-1.601,1.199c0.431,0.576,0.914,1.12,1.436,1.618 L24.408,22.96z"/><path fill="#333" d="M19.232,12.54l1.964,0.377c0.115-0.599,0.281-1.191,0.494-1.762l-1.874-0.699 C19.564,11.131,19.368,11.832,19.232,12.54z"/><path fill="#333" d="M40.962,8.621c0.354,0.496,0.668,1.024,0.934,1.572l1.799-0.875 c-0.315-0.647-0.687-1.272-1.105-1.859L40.962,8.621z"/><path fill="#333" d="M39.398,23.141l1.345,1.48c0.533-0.484,1.029-1.018,1.475-1.584l-1.572-1.236 C40.269,22.28,39.849,22.731,39.398,23.141z"/><path fill="#333" d="M41.657,20.272l1.755,0.959c0.347-0.635,0.642-1.301,0.876-1.979l-1.89-0.654 C42.2,19.172,41.95,19.735,41.657,20.272z"/><path fill="#333" d="M31.383,2.015l0.093,1.998c0.606-0.028,1.227-0.007,1.833,0.063l0.232-1.986 C32.827,2.006,32.098,1.979,31.383,2.015z"/><path fill="#333" d="M35.1,4.443c0.584,0.171,1.159,0.394,1.708,0.66l0.874-1.799c-0.649-0.315-1.328-0.578-2.019-0.781 L35.1,4.443z"/><path fill="#333" d="M42.85,16.826l1.973,0.328C44.94,16.447,45,15.723,45,15h-2C43,15.612,42.949,16.227,42.85,16.826z"/><path fill="#333" d="M32.927,27.968c0.719-0.051,1.438-0.162,2.138-0.331l-0.47-1.943c-0.591,0.143-1.2,0.236-1.81,0.28 L32.927,27.968z"/><path fill="#333" d="M44.91,13.458c-0.084-0.715-0.23-1.429-0.433-2.12L42.558,11.9c0.171,0.585,0.294,1.188,0.365,1.792 L44.91,13.458z"/><path fill="#333" d="M38.381,6.04c0.497,0.354,0.967,0.753,1.397,1.184l1.415-1.414c-0.509-0.509-1.064-0.979-1.651-1.398 L38.381,6.04z"/><path fill="#333" d="M36.331,25.115l0.787,1.838c0.661-0.282,1.304-0.624,1.911-1.016l-1.083-1.682 C37.432,24.587,36.889,24.876,36.331,25.115z"/><path fill="#333" d="M27.167,2.928l0.745,1.855c0.563-0.226,1.152-0.406,1.749-0.535l-0.424-1.955 C28.531,2.446,27.834,2.659,27.167,2.928z"/><path fill="#333" d="M21,15l0.003-0.261l-1.999-0.051L19,15c0,0.619,0.044,1.241,0.131,1.849l1.979-0.283 C21.037,16.052,21,15.524,21,15z"/><path fill="#333" d="M30.766,27.941l0.188-1.99c-0.607-0.058-1.213-0.166-1.802-0.323l-0.516,1.932 C29.332,27.746,30.048,27.874,30.766,27.941z"/><path fill="#333" d="M23.488,5.175l1.31,1.512c0.461-0.399,0.958-0.764,1.479-1.081l-1.043-1.707 C24.619,4.274,24.032,4.704,23.488,5.175z"/><path fill="#333" d="M20.741,8.497l1.731,1.002c0.306-0.529,0.658-1.035,1.045-1.503l-1.54-1.275 C21.519,7.274,21.103,7.872,20.741,8.497z"/><path fill="#333" d="M24.711,25.767c0.597,0.405,1.232,0.763,1.887,1.062l0.831-1.818 c-0.554-0.253-1.09-0.556-1.594-0.897L24.711,25.767z"/><path fill="#333" d="M13.838,43.607C15.158,42.505,16,40.85,16,39c0-3.309-2.691-6-6-6s-6,2.691-6,6 c0,1.85,0.842,3.505,2.162,4.607C3.714,44.698,2,47.151,2,50v10c0,0.553,0.448,1,1,1h14c0.552,0,1-0.447,1-1V50 C18,47.151,16.286,44.698,13.838,43.607z M10,46.692l0.936,2.339L10,51.838l-0.936-2.807L10,46.692z M10,43 c-2.114,0-3.832-1.653-3.973-3.732C7.205,38.451,8.563,38,10,38s2.795,0.451,3.973,1.268C13.832,41.347,12.114,43,10,43z M10,35 c1.291,0,2.43,0.625,3.161,1.578C12.16,36.2,11.097,36,10,36s-2.16,0.2-3.161,0.578C7.57,35.625,8.709,35,10,35z M16,59H4v-9 c0-2.587,1.982-4.696,4.503-4.95l-1.431,3.579c-0.087,0.22-0.095,0.463-0.02,0.688l2,6C9.188,55.725,9.569,56,10,56 s0.812-0.275,0.949-0.684l2-6c0.075-0.225,0.067-0.468-0.02-0.688l-1.431-3.579C14.018,45.304,16,47.413,16,50V59z"/><path fill="#333" d="M57.838,43.607C59.158,42.505,60,40.85,60,39c0-3.309-2.691-6-6-6s-6,2.691-6,6 c0,1.85,0.842,3.505,2.162,4.607C47.714,44.698,46,47.151,46,50v10c0,0.553,0.448,1,1,1h14c0.552,0,1-0.447,1-1V50 C62,47.151,60.286,44.698,57.838,43.607z M54,46.692l0.936,2.339L54,51.838l-0.936-2.807L54,46.692z M54,43 c-2.114,0-3.832-1.653-3.973-3.732C51.205,38.451,52.563,38,54,38s2.795,0.451,3.973,1.268C57.832,41.347,56.114,43,54,43z M54,35 c1.291,0,2.43,0.625,3.161,1.578C56.16,36.2,55.097,36,54,36s-2.16,0.2-3.161,0.578C51.57,35.625,52.709,35,54,35z M60,59H48v-9 c0-2.587,1.982-4.696,4.503-4.95l-1.431,3.579c-0.087,0.22-0.095,0.463-0.02,0.688l2,6C53.188,55.725,53.569,56,54,56 s0.812-0.275,0.949-0.684l2-6c0.075-0.225,0.067-0.468-0.02-0.688l-1.431-3.579C58.018,45.304,60,47.413,60,50V59z"/></svg>