<svg xmlns="http://www.w3.org/2000/svg"  viewBox="0 0 468.001 468.001" width="512px" height="512px"><path fill="#e0e0e0" d="M302.07,27.723L278.378,1.639c-1.855-2.044-5.02-2.198-7.063-0.339 c-2.045,1.856-2.196,5.019-0.34,7.063l11.102,12.224C192.875-2.201,98.899,46.021,66.759,134.271 c-2.119,5.819,7.094,9.745,9.396,3.422C106.849,53.415,197.229,7.759,282.317,30.974l-19.035,6.094 c-5.983,1.915-3.088,11.492,3.049,9.523l33.562-10.745C303.302,34.756,304.476,30.373,302.07,27.723z"/><path fill="#e0e0e0" d="M418.054,212.106c4.225-48.258-10.608-95.272-41.766-132.381c-1.775-2.113-4.929-2.391-7.044-0.614 c-2.115,1.775-2.39,4.929-0.614,7.044c29.438,35.062,43.453,79.482,39.462,125.078c-3.558,40.639-21.052,77.866-49.651,106.312 l4.151-19.15c0.585-2.699-1.129-5.361-3.827-5.946c-2.706-0.585-5.361,1.129-5.946,3.828l-7.461,34.422 c-0.748,3.447,2.412,6.711,5.944,5.946l34.444-7.456c2.699-0.584,4.413-3.246,3.829-5.944c-0.584-2.699-3.246-4.414-5.944-3.829 l-16.487,3.569C396.446,293.095,414.357,254.338,418.054,212.106z"/><path fill="#e0e0e0" d="M272.846,369.108c-0.479-2.72-3.066-4.536-5.792-4.057 c-87.982,15.505-172.377-39.323-195.259-123.916l14.516,13.167c2.044,1.855,5.208,1.702,7.063-0.344 c1.855-2.045,1.702-5.208-0.344-7.063L66.929,223.22c-2.649-2.404-7.029-1.229-8.121,2.177l-10.752,33.54 c-1.888,5.887,7.458,9.493,9.522,3.053l5.161-16.099c22.172,78.169,94.148,131.783,174.451,131.783 c10.421,0,20.99-0.904,31.6-2.773C271.509,374.421,273.326,371.827,272.846,369.108z"/><ellipse cx="238.019" cy="425.518" fill="#e0e0e0" rx="42.715" ry="42.482"/><path fill="#d1d1d1" d="M209.488,425.518c0-21.058,15.409-38.527,35.623-41.889c-2.308-0.384-4.675-0.594-7.092-0.594 c-23.591,0-42.715,19.02-42.715,42.482c0,23.462,19.124,42.482,42.715,42.482c2.417,0,4.784-0.21,7.092-0.594 C224.897,464.046,209.488,446.577,209.488,425.518z"/><path fill="#ffd599" d="M372.785,196.195c0-74.527-60.717-134.882-135.412-134.355 c-71.854,0.507-131.089,58.148-133.4,129.922c-1.452,45.093,19.34,85.401,52.242,110.807c11.753,9.075,18.72,23.01,18.72,37.853 v65.223c0,10.53,8.541,19.065,19.077,19.065h87.581c10.536,0,19.077-8.536,19.077-19.065v-64.402 c0-14.882,6.941-28.928,18.808-37.918C351.864,278.794,372.785,239.938,372.785,196.195z"/><path fill="#ffb64d" d="M186.079,412.721v-75.333c0-14.843-6.967-28.777-18.72-37.853 c-32.901-25.406-53.694-65.714-52.242-110.807c1.867-57.985,40.891-106.739,93.702-123.601 c-58.383,13.196-102.851,64.64-104.847,126.634c-1.452,45.093,19.34,85.401,52.242,110.807 c11.753,9.075,18.72,23.01,18.72,37.853v65.223c0,9.158,6.463,16.8,15.078,18.638 C187.556,421.074,186.079,417.075,186.079,412.721z"/><path fill="#ff667c" d="M336.047,215.723v-35.068l-22.956-3.337c-1.706-6.137-4.142-11.967-7.214-17.394l13.874-18.586 l-24.812-24.797l-18.598,13.865c-5.43-3.07-11.264-5.505-17.405-7.209l-3.339-22.942h-35.09l-3.339,22.942 c-6.141,1.705-11.974,4.139-17.405,7.209l-18.598-13.865l-24.812,24.797l13.874,18.586c-3.072,5.427-5.508,11.257-7.214,17.394 l-22.956,3.337v35.068l22.956,3.337c1.706,6.137,4.141,11.967,7.214,17.394l-13.874,18.586l24.812,24.797l18.598-13.866 c5.43,3.07,11.264,5.505,17.405,7.209l3.339,22.942h35.09l3.339-22.942c6.141-1.705,11.974-4.139,17.405-7.209l18.598,13.866 l24.812-24.797l-13.874-18.586c3.072-5.427,5.508-11.257,7.214-17.394L336.047,215.723z"/><path fill="#fff" d="M293.073,198.189c0-29.938-25.171-54.744-55.023-54.744s-55.023,24.806-55.023,54.744 c0,29.938,25.172,54.744,55.023,54.744C267.905,252.933,293.073,228.13,293.073,198.189z"/><path fill="#e0e0e0" d="M259.398,171.229h-29.692l4.592-3.554c2.184-1.69,2.584-4.831,0.894-7.014 c-1.69-2.184-4.83-2.584-7.014-0.894l-16.162,12.508c-2.548,1.972-2.548,5.937,0,7.908l16.162,12.508 c2.13,1.649,5.4,1.191,7.014-0.894c1.69-2.184,1.29-5.324-0.894-7.014l-4.592-3.554h29.692c2.762,0,5-2.239,5-5 S262.16,171.229,259.398,171.229z"/><path fill="#e0e0e0" d="M264.089,216.195l-16.162-12.508c-2.185-1.691-5.324-1.289-7.015,0.894 c-1.69,2.184-1.29,5.324,0.894,7.014l4.592,3.554h-29.692c-2.761,0-5,2.239-5,5s2.239,5,5,5h29.692l-4.592,3.554 c-2.184,1.69-2.584,4.831-0.894,7.014c1.614,2.086,4.884,2.542,7.015,0.894l16.162-12.508 C266.637,222.132,266.637,218.166,264.089,216.195z"/><path fill="#7171ff" d="M174.935,405.645c0,10.53,8.541,19.065,19.077,19.065h87.581c10.536,0,19.077-8.536,19.077-19.065 v-64.402c0-0.029,0.002-0.057,0.002-0.086l-125.738-0.026V405.645z"/><path fill="#4f4ffc" d="M187.093,405.645v-64.51l-12.158-0.002v64.513c0,10.53,8.541,19.065,19.077,19.065h12.158 C195.634,424.71,187.093,416.174,187.093,405.645z"/><polygon fill="#3ecc7e" points="78.167,402.845 104.991,417.455 78.167,432.065 63.496,458.779 48.825,432.065 22,417.455 48.825,402.845 63.496,376.131"/><polygon fill="#33b568" points="32.271,411.861 22,417.455 48.825,432.065 63.496,458.779 69.113,448.551 56.087,424.832"/><polygon fill="#3ecc7e" points="419.176,402.845 446,417.455 419.176,432.065 404.505,458.779 389.834,432.065 363.009,417.455 389.834,402.845 404.505,376.131"/><polygon fill="#33b568" points="373.28,411.861 363.009,417.455 389.834,432.065 404.505,458.779 410.122,448.551 397.096,424.832"/><g><path fill="#c2c2ff" d="M424.96,33.073l5.887,1.245l-6.807,1.927c-3.585,1.015-6.323,3.912-7.128,7.542l-1.262,5.695 l-1.262-5.695c-0.805-3.631-3.542-6.528-7.128-7.542l-6.807-1.927l5.887-1.245c3.811-0.806,6.822-3.721,7.743-7.498l1.567-6.421 l1.567,6.421C418.139,29.352,421.149,32.267,424.96,33.073z"/></g><g><path fill="#ffb3c0" d="M60.227,33.073l5.887,1.245l-6.807,1.927c-3.585,1.015-6.323,3.912-7.128,7.542l-1.262,5.695 l-1.262-5.695c-0.805-3.631-3.542-6.528-7.128-7.542l-6.807-1.927l5.887-1.245c3.811-0.806,6.822-3.721,7.743-7.498l1.567-6.421 l1.567,6.421C53.405,29.352,56.416,32.267,60.227,33.073z"/></g></svg>