<svg xmlns="http://www.w3.org/2000/svg"  viewBox="0 0 512 512" width="512px" height="512px"><rect width="340" height="290" x="144.5" y="141" fill="#dc72a9" transform="rotate(180 314.5 286)"/><rect width="380" height="60" x="124.5" y="81" fill="#6cafff" transform="rotate(180 314.5 111)"/><polygon fill="#f5eeec" points="274.5 241 314.5 221 354.5 241 354.5 81 274.5 81 274.5 241"/><rect width="150" height="30" x="294.5" y="361" fill="#f5eeec" rx="15" transform="rotate(-180 369.5 376)"/><rect width="90" height="30" x="354.5" y="301" fill="#f5eeec" rx="15" transform="rotate(-180 399.5 316)"/><path fill="#6cafff" d="M107.5,431h0A206,206,0,0,1,7.5,254.38V201l100-30,100,30v53.38A206,206,0,0,1,107.5,431Z"/><circle cx="107.5" cy="281" r="60" fill="#f5eeec"/><path fill="#5a5aa8" d="M504.5,73.5h-380A7.5,7.5,0,0,0,117,81v60a7.5,7.5,0,0,0,7.5,7.5H137V172l-27.34-8.2a7.39,7.39,0,0,0-4.32,0l-100,30A7.49,7.49,0,0,0,0,201v53.38A213.47,213.47,0,0,0,103.64,437.43a7.5,7.5,0,0,0,7.72,0A213.15,213.15,0,0,0,137,419.31V431a7.5,7.5,0,0,0,7.5,7.5h340A7.5,7.5,0,0,0,492,431V148.5h12.5A7.5,7.5,0,0,0,512,141V81A7.5,7.5,0,0,0,504.5,73.5ZM282,88.5h65V228.86l-29.15-14.57a7.46,7.46,0,0,0-6.7,0L282,228.86Zm-150,0H267v45H132ZM107.5,422.19A199.52,199.52,0,0,1,15,254.38v-47.8l92.5-27.75L200,206.58v47.8A199.52,199.52,0,0,1,107.5,422.19ZM477,423.5H152V405.74a213.64,213.64,0,0,0,35.29-46.18A213.87,213.87,0,0,0,215,254.38V201a7.49,7.49,0,0,0-5.34-7.18L152,176.52v-28H267V241a7.5,7.5,0,0,0,10.85,6.71l36.65-18.33,36.65,18.33a7.43,7.43,0,0,0,3.35.79A7.5,7.5,0,0,0,362,241V148.5H477Zm20-290H362v-45H497Z"/><path fill="#5a5aa8" d="M429.5,353.5h-120a22.5,22.5,0,0,0,0,45h120a22.5,22.5,0,0,0,0-45Zm0,30h-120a7.5,7.5,0,0,1,0-15h120a7.5,7.5,0,0,1,0,15Z"/><path fill="#5a5aa8" d="M347,316a22.52,22.52,0,0,0,22.5,22.5h60a22.5,22.5,0,0,0,0-45h-60A22.52,22.52,0,0,0,347,316Zm90,0a7.51,7.51,0,0,1-7.5,7.5h-60a7.5,7.5,0,0,1,0-15h60A7.5,7.5,0,0,1,437,316Z"/><path fill="#5a5aa8" d="M175,281a67.5,67.5,0,1,0-67.5,67.5A67.58,67.58,0,0,0,175,281Zm-67.5,52.5A52.5,52.5,0,1,1,160,281,52.56,52.56,0,0,1,107.5,333.5Z"/><path fill="#5a5aa8" d="M127,258.43l-26.53,29L88,273.85A7.5,7.5,0,0,0,77,284l17.94,19.58a7.51,7.51,0,0,0,11.06,0l32.06-35A7.5,7.5,0,1,0,127,258.43Z"/></svg>